<svg xmlns="http://www.w3.org/2000/svg" width="44" height="44" viewBox="0 0 44 44"><defs><style>.a{fill:#2889aa;opacity:0.48;}.b{fill:none;stroke:#fff;stroke-linecap:round;stroke-width:3px;}</style></defs><g transform="translate(-1346 -706)"><circle class="a" cx="22" cy="22" r="22" transform="translate(1346 706)"/><path class="b" d="M15.176,0a1,1,0,0,1,.864.5l4.667,8a1,1,0,0,1,0,1.008l-4.667,8a1,1,0,0,1-.864.5H5.824a1,1,0,0,1-.864-.5L.294,9.5a1,1,0,0,1,0-1.008L4.961.5A1,1,0,0,1,5.824,0Z" transform="translate(1357.5 719.5)"/></g></svg>