<svg xmlns="http://www.w3.org/2000/svg" viewBox="0 0 247.57 45.111">
  <defs>
    <style>
      .cls-1 {
        fill: #5b57a4;
      }

      .cls-2 {
        fill: #ed779a;
      }

      .cls-3 {
        fill: #ee6378;
      }

      .cls-4 {
        fill: #ffcc30;
      }

      .cls-5 {
        fill: #019aab;
      }

      .cls-6 {
        fill: #58595b;
      }

      .cls-7 {
        fill: #abacad;
      }
    </style>
  </defs>
  <g id="Group_7" data-name="Group 7" transform="translate(-17 -14)">
    <g id="carer-brand-logo-desktop" transform="translate(17 14.36)">
      <g id="Group_1" data-name="Group 1" transform="translate(107.869 -0.36)">
        <path id="Path_1" data-name="Path 1" class="cls-1" d="M184.255,39.384a3.832,3.832,0,0,0-4.576-2.675,15.245,15.245,0,0,1-7.954,0h0a15.089,15.089,0,0,1,8.1-29.072,3.7,3.7,0,0,0,4.576-2.6,3.7,3.7,0,0,0-2.6-4.576,22.569,22.569,0,0,0-12.037,43.5h.141a22.734,22.734,0,0,0,11.9,0A3.764,3.764,0,0,0,184.255,39.384Z" transform="translate(-153.239 0.36)"/>
        <path id="Path_2" data-name="Path 2" class="cls-2" d="M199.734,13.713h0a3.694,3.694,0,1,1,1.689.985,5.892,5.892,0,0,1-1.689-.985" transform="translate(-166.677 -1.915)"/>
        <path id="Path_3" data-name="Path 3" class="cls-3" d="M205.741,23.917h0a3.723,3.723,0,1,1,4.576,2.6,4.652,4.652,0,0,1-1.971,0,3.614,3.614,0,0,1-2.6-2.6" transform="translate(-168.743 -5.432)"/>
        <path id="Path_4" data-name="Path 4" class="cls-4" d="M205.841,35.828a3.748,3.748,0,1,1,2.675,4.576,3.658,3.658,0,0,1-2.675-4.576" transform="translate(-168.772 -9.53)"/>
        <path id="Path_5" data-name="Path 5" class="cls-5" d="M199.934,51.513a3.733,3.733,0,1,1,5.279,0,3.853,3.853,0,0,1-3.59.985,5.08,5.08,0,0,1-1.689-.985" transform="translate(-166.736 -13.107)"/>
      </g>
      <g id="Group_2" data-name="Group 2" transform="translate(161.199 4.258)">
        <path id="Path_6" data-name="Path 6" class="cls-6" d="M231.886,13.662a5.033,5.033,0,0,0,9.081,2.956l1.9,1.76a7.711,7.711,0,0,1-6.124,2.816,7.5,7.5,0,1,1,0-14.994,7.674,7.674,0,0,1,5.35,2.112l-1.83,1.9a5.053,5.053,0,0,0-3.52-1.478A4.8,4.8,0,0,0,231.886,13.662Z" transform="translate(-229 -6.2)"/>
        <path id="Path_7" data-name="Path 7" class="cls-6" d="M260.888,22.848h-2.6V22a4.178,4.178,0,0,1-2.816.985,5.055,5.055,0,0,1-3.8-1.689,5.511,5.511,0,0,1-1.267-3.52,5.072,5.072,0,0,1,4.927-5.279,4.674,4.674,0,0,1,2.956.985v-.845h2.6ZM258.214,16.3a3.067,3.067,0,0,0-2.464-1.267,2.673,2.673,0,0,0-2.6,2.745,2.647,2.647,0,0,0,2.675,2.745,3.067,3.067,0,0,0,2.464-1.267V16.3Z" transform="translate(-235.336 -8.065)"/>
        <path id="Path_8" data-name="Path 8" class="cls-6" d="M275.924,15.1a3.74,3.74,0,0,0-.985-.07,2.971,2.971,0,0,0-2.464,1.478v6.335H269.8V12.711h2.6V13.7a3.713,3.713,0,0,1,2.956-1.2c.422,0,.634.07.915.07Z" transform="translate(-241.08 -8.065)"/>
        <path id="Path_9" data-name="Path 9" class="cls-6" d="M289.633,21.258a5.441,5.441,0,0,1-4.153,1.83,5.046,5.046,0,0,1-5.279-5.209,4.98,4.98,0,0,1,4.927-5.279,4.877,4.877,0,0,1,4.787,5.139,2.638,2.638,0,0,1-.07.774h-6.969a2.642,2.642,0,0,0,2.745,2.393,3.479,3.479,0,0,0,2.534-1.2Zm-2.464-4.716a1.987,1.987,0,0,0-1.971-1.76,2.214,2.214,0,0,0-2.182,1.76Z" transform="translate(-244.159 -8.095)"/>
        <path id="Path_10" data-name="Path 10" class="cls-6" d="M303.324,15.1a3.74,3.74,0,0,0-.986-.07,2.971,2.971,0,0,0-2.464,1.478v6.335H297.2V12.711h2.6V13.7a3.713,3.713,0,0,1,2.957-1.2c.422,0,.634.07.915.07Z" transform="translate(-249.192 -8.065)"/>
        <path id="Path_11" data-name="Path 11" class="cls-6" d="M242.463,46.848a7.449,7.449,0,0,1-5.631,2.675,7.462,7.462,0,0,1-.141-14.923,7.209,7.209,0,0,1,5.35,2.253l-1.408,1.337a5.629,5.629,0,0,0-3.942-1.619,5.493,5.493,0,0,0,.211,10.981,5.063,5.063,0,0,0,3.59-1.337V42.484h-4.153V40.513H242.6v6.335Z" transform="translate(-229.089 -14.609)"/>
        <path id="Path_12" data-name="Path 12" class="cls-6" d="M259.254,50.481a4.455,4.455,0,0,1-3.027,1.126,5.807,5.807,0,0,1-2.464-.634,5,5,0,0,1-2.464-4.435,5.266,5.266,0,0,1,2.534-4.505,4.717,4.717,0,0,1,5.42.493v-.915h1.9V51.4h-1.9Zm-.07-5.843a3.67,3.67,0,0,0-2.816-1.408,3.238,3.238,0,0,0,.07,6.476,3.308,3.308,0,0,0,2.675-1.408v-3.66Z" transform="translate(-235.602 -16.622)"/>
        <path id="Path_13" data-name="Path 13" class="cls-6" d="M275.732,50.259a4.838,4.838,0,0,1-1.549.211,3.543,3.543,0,0,1-2.745-1.126,3.836,3.836,0,0,1-.774-2.6V42.235H268.2v-1.76h2.464V37.8h1.971v2.675h3.1v1.76h-3.1V46.81a2.258,2.258,0,0,0,.282,1.267,1.752,1.752,0,0,0,1.337.493,5.434,5.434,0,0,0,1.056-.141Z" transform="translate(-240.606 -15.556)"/>
        <path id="Path_14" data-name="Path 14" class="cls-6" d="M283,46.891a3.164,3.164,0,0,0,3.168,2.956,3.484,3.484,0,0,0,2.816-1.337l1.267,1.2a5.108,5.108,0,0,1-4.083,1.83,5,5,0,0,1-5.068-5.068,4.761,4.761,0,1,1,9.5,0v.422Zm.211-1.689h5.35a2.693,2.693,0,0,0-2.6-2.112A2.852,2.852,0,0,0,283.212,45.2Z" transform="translate(-244.426 -16.622)"/>
        <path id="Path_15" data-name="Path 15" class="cls-6" d="M304.858,41.7l2.675,6.687,2.675-6.687h2.041l-3.942,9.785H306.97l-2.745-6.828-2.745,6.828h-1.337L296.2,41.7h2.041l2.675,6.687,2.675-6.687Z" transform="translate(-248.896 -16.711)"/>
        <path id="Path_16" data-name="Path 16" class="cls-6" d="M328.454,50.481a4.455,4.455,0,0,1-3.027,1.126,5.807,5.807,0,0,1-2.464-.634,5,5,0,0,1-2.464-4.435,5.266,5.266,0,0,1,2.534-4.505,4.717,4.717,0,0,1,5.42.493v-.915h1.9V51.4h-1.9Zm-.07-5.843a3.67,3.67,0,0,0-2.816-1.408,3.238,3.238,0,0,0,.07,6.476,3.308,3.308,0,0,0,2.675-1.408v-3.66Z" transform="translate(-256.091 -16.622)"/>
        <path id="Path_17" data-name="Path 17" class="cls-6" d="M338.878,56.412l2.675-5.983L337.4,41.7h2.112l3.027,6.476,2.816-6.476h2.112L341.06,56.482h-2.182Z" transform="translate(-261.095 -16.711)"/>
      </g>
      <g id="Group_3" data-name="Group 3" transform="translate(96.297 -0.318)">
        <rect id="Rectangle_1" data-name="Rectangle 1" class="cls-7" width="0.704" height="45.051" transform="translate(0 0)"/>
      </g>
      <g id="Group_6" data-name="Group 6" transform="translate(0 -0.107)">
        <g id="Group_4" data-name="Group 4" transform="translate(20.568)">
          <path id="Path_18" data-name="Path 18" class="cls-6" d="M50.441,37.3c0,.07-.07.07-.141.141" transform="translate(-35.46 -11.044)"/>
          <path id="Path_19" data-name="Path 19" class="cls-6" d="M51.9,25.522a.211.211,0,1,0-.211-.211c-.07.141.07.211.211.211Z" transform="translate(-35.867 -7.431)"/>
          <path id="Path_20" data-name="Path 20" class="cls-6" d="M63.084,12.6H55.2v6.406a1.539,1.539,0,0,0,.634,1.337l3.027,1.83a.366.366,0,0,0,.282.141.709.709,0,0,0,.211-.07l3.1-1.83a1.453,1.453,0,0,0,.634-1.337V12.6ZM57.8,14.43h-.7V12.811h.7V14.43Zm-.493.563.07-.07-.07-.141h.141l.07-.141.07.141h.141l-.07.141.07.07h-.141v.141l-.141-.07-.141.07v-.141Zm-1.9,2.041V15.486h.845v1.549Zm.141-2.253h.141l.07-.141.07.141h.141l-.07.141.07.07h-.141v.141l-.07-.07-.141.07v-.141h-.141l.07-.07v-.141Zm.915,1.549h.141l.07-.141.07.141h.141l-.07.141.07.07h-.141v.141l-.141-.07-.141.07v-.141h-.141l.07-.07.07-.141Zm.563-1.2a.069.069,0,0,0-.07-.07c-.07,0-.07.141-.141.141s-.07,0-.07-.07.07-.07.141-.141c-.493,0-.493.211-.634.211s.141-.211.211-.352c-.07,0-.141-.141-.282-.211.07-.07.07-.07.141,0a.151.151,0,0,1,.141-.141c.211,0,.141.211.211.211s0-.211.141-.211c.211,0,.493.563.282.563l-.07.07Zm-.563-1.76.07-.07-.07-.141h.141l.07-.141.07.141h.141l-.07.141.07.07h-.141v.211l-.141-.07-.07.07v-.141l-.07-.07Zm-.211-.563V14.43h-.845V12.811ZM57.8,21.188l-1.9-1.126a1.271,1.271,0,0,1-.493-1.056v-1.76H57.8v3.942Zm-.7-4.153V15.486h.7v1.549Zm3.1,4.294-.845.493h0a.352.352,0,0,1-.422,0l-.915-.493V17.246H60.2v4.083Zm0-4.294H58.016V12.811H60.2v4.224Zm2.675,1.971a1.5,1.5,0,0,1-.493,1.056l-1.9,1.126V17.246h2.393v1.76Zm0-1.971H60.479V12.811h2.393v4.224Z" transform="translate(-36.911 -3.731)"/>
          <path id="Path_21" data-name="Path 21" class="cls-6" d="M57.782,20.708s-.282.07-.211.07a.938.938,0,0,1,.211-.352c0-.07-.141,0-.282.07.422-.634.141-.352-.07-.352.422-.422.282-.422,0-.282.211-.211.282-.422.211-.493-.211.282-.422.211-.422.493a1.09,1.09,0,0,1-.141.563c-.141.141,0-.493-.352-.493-.07,0-.352,0-.422.141.07,0,.141.141.141.211s.07.211-.07.211c-.07,0-.211-.211-.211-.352v-.211A.867.867,0,0,0,55.6,19.3c0,.211.211.211.211.422-.07,0-.211-.211-.211-.07s.141.141.141.211-.141-.07-.141.07c0,.07.07.07.141.141H55.6a.069.069,0,0,0,.07.07.308.308,0,0,0-.07.211c0,.493.282.7.563.7a.138.138,0,0,0,.141-.141c0,.07.07-.07.07.141,0,.141-.141.07-.141.211,0,.211.282,0,.282.211v.352c0,.07.282-.07.282-.141.07,0,.07.211.211.211.07,0,.07-.211.141-.211-.07,0,.211.211.211.07,0-.211-.07-.141-.07-.282s.352-.141.282-.211-.07,0-.141-.141c0,0-.282-.352.07-.141.282.422.282-.282.282-.282Z" transform="translate(-37.029 -5.714)"/>
          <path id="Path_22" data-name="Path 22" class="cls-6" d="M70.582,23.422c.141,0,.282-.07.282-.211S70.722,23,70.582,23s-.282.07-.282.211.141.211.282.211Z" transform="translate(-41.382 -6.81)"/>
          <path id="Path_23" data-name="Path 23" class="cls-6" d="M69.082,24.322c.141,0,.282-.07.282-.211s-.141-.211-.282-.211-.282.07-.282.211.141.211.282.211Z" transform="translate(-40.937 -7.076)"/>
          <path id="Path_24" data-name="Path 24" class="cls-6" d="M51.382,26.422c.141,0,.282-.07.282-.211S51.522,26,51.382,26s-.282.07-.282.211.141.211.282.211Z" transform="translate(-35.697 -7.698)"/>
          <path id="Path_25" data-name="Path 25" class="cls-6" d="M52.482,26.522c.141,0,.282-.07.282-.211s-.141-.211-.282-.211-.282.07-.282.211a.314.314,0,0,0,.282.211Z" transform="translate(-36.023 -7.728)"/>
          <path id="Path_26" data-name="Path 26" class="cls-6" d="M84.375,11.022a1.653,1.653,0,0,1,.211,1.689c-.141,0-.141-.211-.141-.352a2.221,2.221,0,0,1-.282-1.76c.211.07.141.352.211.422Z" transform="translate(-45.461 -3.138)"/>
          <path id="Path_27" data-name="Path 27" class="cls-6" d="M37.463,11.811a3.03,3.03,0,0,0,0,1.126c-.07.07-.07-.07-.141-.07-.563-.422-.282-1.126-.422-1.689,0-.07.07-.07.141,0,.282.07.352.352.422.634Z" transform="translate(-31.493 -3.294)"/>
          <path id="Path_28" data-name="Path 28" class="cls-6" d="M85.955,12.041c.07.141-.07.282-.211.352a.538.538,0,0,1-.352-.141c-.07-.141.07-.282.141-.352a.6.6,0,0,1,.422.141Z" transform="translate(-45.844 -3.523)"/>
          <path id="Path_29" data-name="Path 29" class="cls-6" d="M36.263,12.911c0,.141-.07.282-.211.282a.282.282,0,0,1-.352-.352.366.366,0,0,1,.282-.141c.141.07.211.07.282.211Z" transform="translate(-31.137 -3.76)"/>
          <path id="Path_30" data-name="Path 30" class="cls-6" d="M86.793,13.241v.211a.257.257,0,0,1-.352.141c-.07-.07-.141-.141-.141-.211,0-.141.141-.211.211-.282.07,0,.141.07.282.141Z" transform="translate(-46.119 -3.879)"/>
          <path id="Path_31" data-name="Path 31" class="cls-6" d="M85.593,13.358c.141.07,0,.211,0,.282-.07.07-.141.211-.282.141-.07-.07-.141-.07-.211-.141a.387.387,0,0,1,.211-.352c.141-.07.211,0,.282.07Z" transform="translate(-45.764 -3.926)"/>
          <path id="Path_32" data-name="Path 32" class="cls-6" d="M84.222,13.611c0,.141,0,.352-.141.352-.141.07-.282-.07-.282-.211a.387.387,0,0,1,.211-.352q.106,0,.211.211Z" transform="translate(-45.379 -3.967)"/>
          <path id="Path_33" data-name="Path 33" class="cls-6" d="M38.38,13.629c.07.141-.07.211-.211.282a.534.534,0,0,1-.282-.141c-.07-.07,0-.211.07-.282.211-.07.422,0,.422.141Z" transform="translate(-31.777 -3.985)"/>
          <path id="Path_34" data-name="Path 34" class="cls-6" d="M37.311,13.711a.366.366,0,0,1-.141.282c-.141.07-.211-.07-.282-.141a.257.257,0,0,1,.141-.352c.07,0,.211.141.282.211Z" transform="translate(-31.481 -3.997)"/>
          <path id="Path_35" data-name="Path 35" class="cls-6" d="M79.56,13.811a2.291,2.291,0,0,1,.282.985c-.07.282.07.634-.141.774-.211-.07-.211-.282-.352-.422-.282-.493,0-1.056.07-1.549.07,0,.07.141.141.211Z" transform="translate(-44.024 -4.027)"/>
          <path id="Path_36" data-name="Path 36" class="cls-6" d="M36.263,14.011c.07.141-.07.282-.211.352s-.282-.07-.352-.211a.29.29,0,1,1,.563-.141Z" transform="translate(-31.137 -4.086)"/>
          <path id="Path_37" data-name="Path 37" class="cls-6" d="M82.563,14.48a1.767,1.767,0,0,1,.07,1.337l-.07.07A3.387,3.387,0,0,1,82,14.762a2.53,2.53,0,0,1,.141-.774c.07-.07.141,0,.211.07a.5.5,0,0,0,.211.422Z" transform="translate(-44.846 -4.133)"/>
          <path id="Path_38" data-name="Path 38" class="cls-6" d="M84.955,14.233a.387.387,0,0,1-.211.352c-.141,0-.282,0-.352-.141s.07-.282.141-.352a.4.4,0,0,1,.422.141Z" transform="translate(-45.548 -4.167)"/>
          <path id="Path_39" data-name="Path 39" class="cls-6" d="M37.271,14.882c0,.141-.07.211-.211.282s-.211-.07-.282-.07a.32.32,0,0,1,0-.352c.07-.07.141-.07.211-.141a.55.55,0,0,1,.282.282Z" transform="translate(-31.441 -4.323)"/>
          <path id="Path_40" data-name="Path 40" class="cls-6" d="M38.122,14.816c.07.141-.07.211-.141.282a.208.208,0,0,1-.282-.141.366.366,0,0,1,.141-.282c.141-.141.211,0,.282.141Z" transform="translate(-31.73 -4.328)"/>
          <path id="Path_41" data-name="Path 41" class="cls-6" d="M85.149,14.8c0,.211-.282.352-.352.563a1.523,1.523,0,0,1-.845.774,1.539,1.539,0,0,1-.352.211c0-.282.211-.493.352-.774a2.511,2.511,0,0,1,1.2-.774Z" transform="translate(-45.319 -4.382)"/>
          <path id="Path_42" data-name="Path 42" class="cls-6" d="M36.685,15.393a4.554,4.554,0,0,0,.563.634c0,.07,0,.141-.07.141-.7-.07-1.126-.7-1.478-1.2.07-.141.211,0,.352-.07.211.211.422.282.634.493Z" transform="translate(-31.137 -4.412)"/>
          <path id="Path_43" data-name="Path 43" class="cls-6" d="M85.537,15.9a1.809,1.809,0,0,1-.845,1.478c-.141.07-.352.211-.493.141A7.971,7.971,0,0,1,85.4,15.9h.141Z" transform="translate(-45.497 -4.708)"/>
          <path id="Path_44" data-name="Path 44" class="cls-6" d="M82.063,16.441a.342.342,0,0,1-.211.422.6.6,0,0,1-.352-.211c0-.141.07-.282.211-.282a.218.218,0,0,1,.141-.07c.07,0,.141.07.211.141Z" transform="translate(-44.698 -4.826)"/>
          <path id="Path_45" data-name="Path 45" class="cls-6" d="M35.526,16.511c.282.211.493.422.774.634-.211.141-.422,0-.634,0-.493-.141-.774-.563-1.267-.7,0-.141.211-.07.282-.141a2.971,2.971,0,0,1,.845.211Z" transform="translate(-30.753 -4.826)"/>
          <path id="Path_46" data-name="Path 46" class="cls-6" d="M49.555,8.749c-.774-.282-1.267.493-2.041.422-.07.07-.07.141-.141.211a.1.1,0,0,1-.141,0c-.07-.352-.141-.634-.211-.985-.07-.141-.07-.352-.141-.493-.422-1.2,1.056-.282,1.408-.985.282-.634-.493-.7-.774-1.126V5.652c-.211-.211-.422-.282-.563-.563a2.684,2.684,0,0,0,.07-1.056c0-.07-.07-.211-.211-.141-.282.352-.422.634-.7.985a8.793,8.793,0,0,0-.845-.634c-.211,0-.422-.211-.634-.141-.07.07,0,.141.07.211a1.7,1.7,0,0,0,.7,1.337l.07.211a5.249,5.249,0,0,0-.282,1.83,10.972,10.972,0,0,1-2.956,4.224c-.774.915-1.689,1.76-1.83,2.956-.07.211,0,.422-.141.563a4.483,4.483,0,0,1-1.267-.7c-.634-.422-1.549-.422-1.971-1.2a.877.877,0,0,1,.211-.845,1.482,1.482,0,0,0,.141-1.76c-.07,0-.07.07-.141.07-.07.845-.7,1.408-.422,2.253.07.282.211.422.282.7a.423.423,0,0,1-.282-.07,4.12,4.12,0,0,0-.915-.141c-.634.282-1.478-.07-2.041.493-.07,0-.211,0-.141.141.282,0,.563.07.915.07.493.07.774-.352,1.126-.493h.07c.141-.141.352-.07.563-.07a5.269,5.269,0,0,1,2.253.915v.07c-.282.141-.563.211-.845.352a1.62,1.62,0,0,0-.774.915c-.211.352.07.634.211.915,0,.141,0,.282.141.352.422-.493,0-1.056.07-1.619a1.07,1.07,0,0,1,.915-.7c.774-.352,1.337.282,1.971.634a8.6,8.6,0,0,1-.07,1.9.994.994,0,0,1-.634.07,12.679,12.679,0,0,0-2.886.985c-.422.141-.985.141-1.408.282a2.684,2.684,0,0,0,1.056-.07c1.337-.211,2.393-1.267,3.872-1.056v.07a2.679,2.679,0,0,1-.634.915c-.07-.141-.07-.282-.211-.352s-.211,0-.282.141a.132.132,0,0,0,0,.211c.07.141.211.141.282.211,0,.141-.211.211-.282.282-.352.634-1.2.422-1.619.845-.07.07-.282.141-.211.282a1.938,1.938,0,0,0,1.408-.352c.493-.563,1.056-1.126,1.549-1.619a1.99,1.99,0,0,1-.282,1.267c-.141-.07-.211-.141-.352-.211-.141,0-.211.141-.282.282.07.07.141.211.211.282a4.332,4.332,0,0,1-1.619.493,21.137,21.137,0,0,1-3.027.211,5.194,5.194,0,0,1-1.478,0A3.93,3.93,0,0,0,31.887,21c-.07.07,0,.141,0,.211.634.422,1.478.07,2.182.211h5.42a2.025,2.025,0,0,0,1.126-.211,4.733,4.733,0,0,0,1.478-1.83,3.968,3.968,0,0,0,.282-.845,1.212,1.212,0,0,1,1.056-.845A7.184,7.184,0,0,1,43.22,19.8c-.07.422-.352.845-.211,1.337.07.211.282.211.422.282,1.689,0,3.308-.07,5.068,0a3.566,3.566,0,0,0,.915.141c0-.07.141-.07.07-.141-.07-.141-.141-.352-.352-.422,0-.07-.141-.07-.211-.141-.915-.493-1.971-.211-2.956-.211a2.325,2.325,0,0,1-1.549-.141c-.211-.282-.07-1.056-.07-1.056,0-.282.774-2.464.845-2.675,0-.211.141-.422.07-.634a2.026,2.026,0,0,0,.07-.915,8.915,8.915,0,0,1,.422-1.267l.211-.634a2.108,2.108,0,0,1,.282-.7c.422.282.915.282,1.126.774l.211,1.126c0,.07.07.211.141.141.352-.211.282-.774.282-1.126.07-.422-.211-.634-.352-.985a4.312,4.312,0,0,1-.282-.422c-.07-.282-.7-.493-.563-.915.07-.352.141-.634.493-.774a.069.069,0,0,1,.07.07l.141-.141V9.242c.422,0,1.126.07,1.549.07.141.07.211.141.352.141l.141-.141L50.682,9.1c-.422.211-.7-.352-1.126-.352Z" transform="translate(-29.999 -1.147)"/>
          <path id="Path_47" data-name="Path 47" class="cls-6" d="M58.7,11.5h0Z" transform="translate(-37.947 -3.405)"/>
          <path id="Path_48" data-name="Path 48" class="cls-6" d="M41.385,16.941a.387.387,0,0,1-.211.352c-.141-.07-.211-.07-.282-.141-.07-.141.07-.282.211-.352.141,0,.282,0,.282.141Z" transform="translate(-32.669 -4.974)"/>
          <path id="Path_49" data-name="Path 49" class="cls-6" d="M40.24,16.975a.528.528,0,0,1,.07.352c-.07.07-.282.141-.352.07s-.141-.211-.07-.282c.07-.141.211-.282.352-.141Z" transform="translate(-32.369 -5.009)"/>
          <path id="Path_50" data-name="Path 50" class="cls-6" d="M67.6,17.2h0" transform="translate(-40.582 -5.092)"/>
          <path id="Path_51" data-name="Path 51" class="cls-6" d="M82.293,17.441c.07.141-.07.282-.211.352-.141-.07-.282-.07-.282-.282a.225.225,0,0,1,.211-.211.366.366,0,0,1,.282.141Z" transform="translate(-44.786 -5.122)"/>
          <path id="Path_52" data-name="Path 52" class="cls-6" d="M83.293,17.466c.07.07.141.211,0,.282l-.141.141c-.141,0-.282,0-.352-.141,0-.141.07-.211.211-.282.141-.141.211-.07.282,0Z" transform="translate(-45.083 -5.147)"/>
          <path id="Path_53" data-name="Path 53" class="cls-6" d="M35.293,17.611a.387.387,0,0,1-.352.211c-.07-.07-.07-.141-.141-.211,0-.07.07-.211.141-.211a.387.387,0,0,1,.352.211Z" transform="translate(-30.871 -5.152)"/>
          <path id="Path_54" data-name="Path 54" class="cls-6" d="M41.893,18c0,.141-.141.211-.211.282-.141,0-.211-.07-.282-.211,0-.141.07-.282.141-.282.07-.07.282.07.352.211Z" transform="translate(-32.825 -5.262)"/>
          <path id="Path_55" data-name="Path 55" class="cls-6" d="M40.714,17.887a.423.423,0,0,1,.07.282c-.07.07-.211.211-.352.141-.07-.07-.211-.141-.141-.282.07-.07.141-.141.211-.141.07-.07.141,0,.211,0Z" transform="translate(-32.491 -5.287)"/>
          <path id="Path_56" data-name="Path 56" class="cls-6" d="M86.263,18.111c0,.141-.141.211-.211.282-.141.07-.211,0-.282-.07-.07,0-.07-.141-.07-.211a.972.972,0,0,1,.282-.211c.141,0,.211.141.282.211Z" transform="translate(-45.941 -5.3)"/>
          <path id="Path_57" data-name="Path 57" class="cls-6" d="M87.593,18.338a.55.55,0,0,1-.282.282c-.07,0-.211-.07-.211-.141s.07-.211.141-.211c.141-.141.282-.07.352.07Z" transform="translate(-46.356 -5.386)"/>
          <path id="Path_58" data-name="Path 58" class="cls-6" d="M37.48,18.541c0,.141,0,.282-.141.352-.07.07-.211,0-.282-.07s-.141-.211-.07-.282c0-.141.141-.07.211-.141a.366.366,0,0,1,.282.141Z" transform="translate(-31.51 -5.448)"/>
          <path id="Path_59" data-name="Path 59" class="cls-6" d="M38.455,18.716c.07.141-.07.141-.141.211s-.141.07-.282,0c-.07-.07-.211-.211-.141-.352.141-.141.493,0,.563.141Z" transform="translate(-31.781 -5.482)"/>
          <path id="Path_60" data-name="Path 60" class="cls-6" d="M85.193,18.658c0,.141-.141.211-.211.352-.141,0-.282-.07-.282-.141a.366.366,0,0,1,.141-.282.31.31,0,0,1,.352.07Z" transform="translate(-45.645 -5.495)"/>
          <path id="Path_61" data-name="Path 61" class="cls-6" d="M86.763,18.929c0,.141,0,.282-.141.352a.527.527,0,0,1-.352-.07.423.423,0,0,1-.07-.282.257.257,0,0,1,.352-.141c.07.07.141.141.211.141Z" transform="translate(-46.089 -5.555)"/>
          <path id="Path_62" data-name="Path 62" class="cls-6" d="M36.793,19.325c.07.141-.07.141-.141.211s-.211,0-.282,0a.423.423,0,0,1-.07-.282c.141-.211.422-.07.493.07Z" transform="translate(-31.315 -5.669)"/>
          <path id="Path_63" data-name="Path 63" class="cls-6" d="M84.989,19.622c.07,0,0,.07,0,.141a1.076,1.076,0,0,1-1.126-.07,1.415,1.415,0,0,0-.563-.282c.07-.211.282-.141.493-.211.493.07.774.422,1.2.422Z" transform="translate(-45.231 -5.685)"/>
          <path id="Path_64" data-name="Path 64" class="cls-6" d="M37.72,19.529c0,.141-.07.141-.07.211a.132.132,0,0,1-.211,0c-.141-.07-.211-.211-.07-.352.07-.07.282,0,.352.141Z" transform="translate(-31.608 -5.732)"/>
          <path id="Path_65" data-name="Path 65" class="cls-6" d="M39.367,19.71c.07.141,0,.211-.141.282-.07.07-.211,0-.282-.07s-.211-.211-.07-.352a.312.312,0,0,1,.493.141Z" transform="translate(-32.06 -5.772)"/>
          <path id="Path_66" data-name="Path 66" class="cls-6" d="M61.4,20.479c0,.282-.493-.07-.422.352a2.522,2.522,0,0,0,.282.774,1.217,1.217,0,0,1,.07.7.946.946,0,0,1-.493.422c-.422-.07-.985.211-1.126-.282a2.237,2.237,0,0,1-.211-.634c.07,0,.07,0,.141-.07,0-.07-.07-.141-.07-.211.422-.07-.211-.493.211-.493.282.352.845.211,1.126.563.07.07.141.141.211.141-.07-.352-.211-.634-.282-.985a.435.435,0,0,1,.141-.493c.141-.211.282.07.422.211Z" transform="translate(-38.184 -5.978)"/>
          <path id="Path_67" data-name="Path 67" class="cls-6" d="M41.114,20.441c.07.141-.07.211-.141.282-.141.07-.211-.07-.282-.141-.07-.141.07-.211.141-.282.141,0,.282,0,.282.141Z" transform="translate(-32.61 -6.01)"/>
          <path id="Path_68" data-name="Path 68" class="cls-6" d="M53.21,20.659a1.937,1.937,0,0,1-.141,1.549c0,.141,0,.282-.141.282-.352-.493-.07-1.267.07-1.76,0-.211.141-.211.211-.07Z" transform="translate(-36.188 -6.087)"/>
          <path id="Path_69" data-name="Path 69" class="cls-6" d="M69.922,20.877a1.344,1.344,0,0,1,0,1.267l-.07.141A5.517,5.517,0,0,1,69.5,21.3a3.1,3.1,0,0,0,.141-.7c.282-.07.282.211.282.282Z" transform="translate(-41.145 -6.094)"/>
          <path id="Path_70" data-name="Path 70" class="cls-6" d="M42.189,21.255c-.07.141-.352.211-.493.352a1.483,1.483,0,0,1-1.2.211,1.477,1.477,0,0,1,1.549-.634.218.218,0,0,1,.141.07Z" transform="translate(-32.559 -6.262)"/>
          <path id="Path_71" data-name="Path 71" class="cls-6" d="M34.741,22a3.5,3.5,0,0,1,.915,1.337c.07.07.211.07.141.211-.141.07-.211-.07-.352-.07A1.6,1.6,0,0,1,34.6,22.07c0-.07.07-.07.141-.07Z" transform="translate(-30.812 -6.514)"/>
          <path id="Path_72" data-name="Path 72" class="cls-6" d="M69.214,22.544c0,.141,0,.282-.141.352a.208.208,0,0,1-.282-.141c-.07-.07.07-.141.07-.211.07-.211.282-.141.352,0Z" transform="translate(-40.929 -6.635)"/>
          <path id="Path_73" data-name="Path 73" class="cls-6" d="M74.432,18.283c0-.282.07-.493.07-.774a.423.423,0,0,0,.07-.282c.352-.422.985-.282,1.549-.282.211.141.493.07.7.141a.528.528,0,0,1,.352-.07c.422-.211.141-.774.211-1.126l-.141-.422c-.07-.07-.07-.211-.141-.282s-.141-.282-.211-.352a4.353,4.353,0,0,0-1.056-1.408,5.86,5.86,0,0,0-2.886-1.76,4.982,4.982,0,0,0-3.168.493c-.282-.07-.422-.352-.563-.563a2.659,2.659,0,0,1,.282-1.478c.07-.352.282-.634.352-.915a9.131,9.131,0,0,0,.563-2.393,1.418,1.418,0,0,0-.774-1.126.767.767,0,0,0-.774.141,1.946,1.946,0,0,1-.915.774c0,.211.282.07.352.141.282.07.634-.07.915.141a2.5,2.5,0,0,1-.563,1.408,9.777,9.777,0,0,0-1.267,2.182l-.07-.07.07,3.379a3.851,3.851,0,0,0,1.83,1.83c.422.352.985.774,1.549.493.282-.07.352.352.493.493.141.493-.211.845-.211,1.337L70.7,18.7a9.746,9.746,0,0,1-1.408,2.323c-.211,0-.352.211-.563.211-.141.141-.352.07-.493.07-.422.211-1.056.07-1.337.493,0,.07.07.07.141.07.845,0,1.76.07,2.675,0,.141-.07.211-.141.211-.282-.141-.211.07-.422.141-.634.07-.352.282-.563.352-.845.282-.563.634-1.126.915-1.689l.422-.7c.07-.211.282-.493.422-.774.141-.141.141-.211.282-.352a.366.366,0,0,0-.141-.282c.07-.07.282-.07.352-.07a1.62,1.62,0,0,1,.774.915l.141.352.07.141v.493l.07.422a10.309,10.309,0,0,1-.141,2.041c-.211.774-1.126.7-1.83.915-.141.141-.493.07-.493.352a15.885,15.885,0,0,0,2.6.07c.141-.07.141-.211.211-.282,0-.211.211-.352.141-.493-.141-.211,0-.493-.07-.774v-.282a8.706,8.706,0,0,0,.141-1.267l.141-.563Z" transform="translate(-40.375 -1.67)"/>
          <path id="Path_74" data-name="Path 74" class="cls-6" d="M86.43,22.8a3.291,3.291,0,0,1-1.689,1.549c-.07,0-.141,0-.141-.07.493-.493.7-1.267,1.478-1.478Z" transform="translate(-45.615 -6.751)"/>
          <path id="Path_75" data-name="Path 75" class="cls-6" d="M33.714,23.711c-.07.07,0,.211-.141.211-.141.07-.211,0-.282-.141s.07-.282.211-.282c.07.07.141.07.211.211Z" transform="translate(-30.419 -6.958)"/>
          <path id="Path_76" data-name="Path 76" class="cls-6" d="M38.789,23.922c.07.141-.07.141-.141.141a1.413,1.413,0,0,1-1.549-.422c0-.07,0-.141.07-.141.493.211,1.126.07,1.619.422Z" transform="translate(-31.552 -6.958)"/>
          <path id="Path_77" data-name="Path 77" class="cls-6" d="M34.663,23.741c0,.07.07.141,0,.211-.07.141-.211.141-.352.141-.07-.07-.141-.07-.211-.211,0-.141.141-.211.211-.282.211.07.282.07.352.141Z" transform="translate(-30.664 -6.987)"/>
          <path id="Path_78" data-name="Path 78" class="cls-6" d="M53.11,23.841a.366.366,0,0,1-.141.282c-.141,0-.211,0-.282-.141-.07-.07,0-.211.07-.282a.743.743,0,0,1,.352.141Z" transform="translate(-36.158 -7.017)"/>
          <path id="Path_79" data-name="Path 79" class="cls-6" d="M87.763,23.929c.07.141-.07.211-.211.282-.07.07-.211,0-.282-.07,0-.07-.07-.141-.07-.211.07-.141.211-.211.282-.141.141.07.211.07.282.141Z" transform="translate(-46.385 -7.035)"/>
          <path id="Path_80" data-name="Path 80" class="cls-6" d="M89.063,23.862c.07.141,0,.211-.07.352-.07.07-.141.141-.282.07-.07-.07-.211-.141-.211-.282a.225.225,0,0,1,.211-.211c.141-.07.211.07.352.07Z" transform="translate(-46.77 -7.038)"/>
          <path id="Path_81" data-name="Path 81" class="cls-6" d="M32.793,24.411c0,.07-.07.141-.07.211-.07,0-.141.07-.211.07l-.211-.211c0-.141.141-.211.282-.282a.225.225,0,0,1,.211.211Z" transform="translate(-30.131 -7.165)"/>
          <path id="Path_82" data-name="Path 82" class="cls-6" d="M73.985,24.446v.211a.257.257,0,0,1-.352.141c-.07-.07-.211-.141-.141-.282.141-.211.422-.282.493-.07Z" transform="translate(-42.321 -7.2)"/>
          <path id="Path_83" data-name="Path 83" class="cls-6" d="M36.022,24.674a.225.225,0,0,1-.211.211c-.141,0-.141-.07-.211-.141,0-.141,0-.282.141-.352s.282.07.282.282Z" transform="translate(-31.108 -7.217)"/>
          <path id="Path_84" data-name="Path 84" class="cls-6" d="M34.093,24.682c.07.141-.07.211-.141.282-.141.07-.282-.07-.352-.211a.468.468,0,0,1,.282-.352c.07.07.141.211.211.282Z" transform="translate(-30.516 -7.224)"/>
          <path id="Path_85" data-name="Path 85" class="cls-6" d="M75.293,24.741c0,.141,0,.282-.141.352s-.282-.07-.352-.211c.07-.141.07-.282.282-.282.07,0,.141.07.211.141Z" transform="translate(-42.714 -7.283)"/>
          <path id="Path_86" data-name="Path 86" class="cls-6" d="M34.993,24.811c.07.07-.07.141-.07.211-.07,0-.141.07-.211.07-.07-.07-.141-.07-.211-.211,0-.141.07-.211.211-.282.211,0,.282.07.282.211Z" transform="translate(-30.782 -7.283)"/>
          <path id="Path_87" data-name="Path 87" class="cls-6" d="M86.671,24.887c-.07.141-.141.141-.211.211a.366.366,0,0,1-.282-.141.214.214,0,0,1,0-.282.324.324,0,0,1,.493.211Z" transform="translate(-46.067 -7.289)"/>
          <path id="Path_88" data-name="Path 88" class="cls-6" d="M88.168,24.982a.387.387,0,0,1-.352.211c-.141-.07-.282-.141-.141-.352.07-.07.07-.141.141-.141.211,0,.282.141.352.282Z" transform="translate(-46.509 -7.313)"/>
          <path id="Path_89" data-name="Path 89" class="cls-6" d="M78.893,25.229c.07.211-.07.211-.211.352a.534.534,0,0,1-.282-.141.387.387,0,0,1,.211-.352c.141-.07.211,0,.282.141Z" transform="translate(-43.78 -7.42)"/>
          <path id="Path_90" data-name="Path 90" class="cls-6" d="M73.522,25.456c.07,0,.07.141,0,.141-.07.07-.211.211-.282.141a.366.366,0,0,1-.141-.282.264.264,0,0,1,.422,0Z" transform="translate(-42.211 -7.506)"/>
          <path id="Path_91" data-name="Path 91" class="cls-6" d="M74.609,25.511c0,.141,0,.141-.141.211-.07.07-.211,0-.282-.07,0-.07-.07-.141,0-.211s.141-.07.211-.141c.07.141.211.141.211.211Z" transform="translate(-42.523 -7.491)"/>
          <path id="Path_92" data-name="Path 92" class="cls-6" d="M41.4,25.541c.07.07,0,.211,0,.282a.31.31,0,0,1-.352.07c-.141-.07-.141-.211-.07-.352.07,0,.07-.141.211-.141.07.07.141.07.211.141Z" transform="translate(-32.687 -7.52)"/>
          <path id="Path_93" data-name="Path 93" class="cls-6" d="M80.963,25.611a.225.225,0,0,1-.211.211c-.141.07-.282-.07-.352-.211,0-.07.07-.141.141-.211a.6.6,0,0,1,.422.211Z" transform="translate(-44.372 -7.52)"/>
          <path id="Path_94" data-name="Path 94" class="cls-6" d="M79.993,25.611c.07.141-.07.211-.141.282s-.211,0-.282-.07a.259.259,0,0,1-.07-.211l.211-.211c.07.07.211.141.282.211Z" transform="translate(-44.106 -7.52)"/>
          <path id="Path_95" data-name="Path 95" class="cls-6" d="M88.082,25.858c0,.211-.211.07-.282.141a2.261,2.261,0,0,1-1.9-.141c.07-.211.282-.141.352-.211.563-.352,1.2.141,1.83.211Z" transform="translate(-46 -7.556)"/>
          <path id="Path_96" data-name="Path 96" class="cls-6" d="M34.6,25.677l-.07.07a2.589,2.589,0,0,1-1.76.352l-.07-.07a2.536,2.536,0,0,1,1.9-.352Z" transform="translate(-30.249 -7.586)"/>
          <path id="Path_97" data-name="Path 97" class="cls-6" d="M82.985,25.829a.366.366,0,0,1-.141.282.257.257,0,0,1-.352-.141c-.07-.141.07-.211.211-.282.07-.07.211,0,.282.141Z" transform="translate(-44.986 -7.598)"/>
          <path id="Path_98" data-name="Path 98" class="cls-6" d="M38.685,25.811c-.07.141,0,.211-.141.282s-.282-.07-.352-.211.07-.211.141-.282a.439.439,0,0,1,.352.211Z" transform="translate(-31.87 -7.58)"/>
          <path id="Path_99" data-name="Path 99" class="cls-6" d="M37.385,25.911c.07.07-.07.141-.07.211a.423.423,0,0,1-.282.07c-.07-.07-.211-.211-.141-.352.07-.07.141-.141.211-.141.07.07.211.07.282.211Z" transform="translate(-31.485 -7.609)"/>
          <path id="Path_100" data-name="Path 100" class="cls-6" d="M84.38,26.411c0,.141-.141.211-.211.282a.366.366,0,0,1-.282-.141c-.07-.07,0-.211.07-.282,0-.07.141-.07.211-.07s.141.07.211.211Z" transform="translate(-45.396 -7.757)"/>
          <path id="Path_101" data-name="Path 101" class="cls-6" d="M35.508,26.3c.07.141-.07.141-.07.211a4.179,4.179,0,0,1-.282.563,1.39,1.39,0,0,1-.985.422l-.07-.141A3.546,3.546,0,0,1,35.508,26.3Z" transform="translate(-30.664 -7.787)"/>
          <path id="Path_102" data-name="Path 102" class="cls-6" d="M83.385,26.633c0,.141-.141.211-.211.282a.366.366,0,0,1-.282-.141c-.07-.141.07-.211.211-.282s.211.07.282.141Z" transform="translate(-45.104 -7.838)"/>
          <path id="Path_103" data-name="Path 103" class="cls-6" d="M38.211,26.641c-.07,0,0,.07,0,0a.414.414,0,0,1-.141.352.366.366,0,0,1-.282-.141.257.257,0,0,1,.141-.352.281.281,0,0,1,.282.141Z" transform="translate(-31.748 -7.846)"/>
          <path id="Path_104" data-name="Path 104" class="cls-6" d="M86.825,27.063c.141,0,.141-.211.352-.211a.538.538,0,0,1,.352.141c.07.141-.07.282-.211.352-.07.07-.282-.07-.282.07.07.07.211.141.211.282,0,.07-.141.07-.141,0a1.489,1.489,0,0,1-.985-.845c-.07-.141-.282-.211-.141-.352a1.3,1.3,0,0,1,.845.563Z" transform="translate(-46.01 -7.846)"/>
          <path id="Path_105" data-name="Path 105" class="cls-6" d="M88.863,26.641a.214.214,0,0,1,0,.282c-.07.141-.282.07-.422.07a.366.366,0,0,1-.141-.282l.211-.211c.141,0,.211.07.352.141Z" transform="translate(-46.711 -7.846)"/>
          <path id="Path_106" data-name="Path 106" class="cls-6" d="M81.467,27.47a1.067,1.067,0,0,1,.282.563c0,.07-.07,0-.141,0a2.484,2.484,0,0,1-1.267-1.126c-.07-.07-.141-.141-.141-.211.352-.07.7.211.985.422a.762.762,0,0,1,.282.352Z" transform="translate(-44.313 -7.901)"/>
          <path id="Path_107" data-name="Path 107" class="cls-6" d="M37.085,26.911c.07.141-.07.211-.141.282a.388.388,0,0,1-.352-.141c-.07-.141.07-.282.211-.352.141,0,.211.141.282.211Z" transform="translate(-31.396 -7.905)"/>
          <path id="Path_108" data-name="Path 108" class="cls-6" d="M84.209,27.4c0,.07-.07.141-.141.211-.141,0-.211.07-.282-.07,0-.07-.07-.211,0-.282.141-.211.352,0,.422.141Z" transform="translate(-45.365 -8.045)"/>
          <path id="Path_109" data-name="Path 109" class="cls-6" d="M89.05,27.629c.07.141-.07.282-.211.352s-.282-.07-.352-.141,0-.141,0-.282a.31.31,0,0,1,.352-.07c.07.07.141.07.211.141Z" transform="translate(-46.757 -8.13)"/>
          <path id="Path_110" data-name="Path 110" class="cls-6" d="M75,30.459c0,.141-.282.141-.422.282a3.28,3.28,0,0,1-1.478.211v-.141a2,2,0,0,1,1.9-.352Z" transform="translate(-42.211 -8.989)"/>
          <path id="Path_111" data-name="Path 111" class="cls-6" d="M47.014,31.211a.187.187,0,0,1-.211.211c-.07,0-.211-.07-.211-.141-.07-.141.07-.211.211-.282a.317.317,0,0,1,.211.211Z" transform="translate(-34.357 -9.178)"/>
          <path id="Path_112" data-name="Path 112" class="cls-6" d="M75.163,31.437a.387.387,0,0,1-.211.352c-.141,0-.211-.07-.282-.07-.07-.07,0-.141-.07-.211.141-.282.493-.282.563-.07Z" transform="translate(-42.655 -9.263)"/>
          <path id="Path_113" data-name="Path 113" class="cls-6" d="M78.441,31.557a2.288,2.288,0,0,1-1.2.493H76.47l-.07-.07a2.139,2.139,0,0,1,1.971-.493v.07Z" transform="translate(-43.188 -9.313)"/>
          <path id="Path_114" data-name="Path 114" class="cls-6" d="M41.681,32c0,.141-.07.211-.211.282-.141,0-.211,0-.282-.141a.257.257,0,0,1,.141-.352c.141-.07.282.07.352.211Z" transform="translate(-32.754 -9.407)"/>
          <path id="Path_115" data-name="Path 115" class="cls-6" d="M42.61,32.241c.07.07,0,.141-.07.211a.214.214,0,0,1-.282,0c-.07-.07-.141-.141-.07-.211s.141-.07.141-.141c.141,0,.282,0,.282.141Z" transform="translate(-33.05 -9.504)"/>
          <path id="Path_116" data-name="Path 116" class="cls-6" d="M34.708,33.741c-.141.141-.352-.07-.493-.141-.493-.282-.493-.845-.915-1.126.07-.141.211,0,.282,0a.534.534,0,0,0,.282.141c.422.211.563.7.845,1.126Z" transform="translate(-30.427 -9.596)"/>
          <path id="Path_117" data-name="Path 117" class="cls-6" d="M73.693,24.16a1.039,1.039,0,0,0-1.056-.563.934.934,0,0,0-.774.563.7.7,0,0,0,.282.774c.07.07.211,0,.282-.07.07-.211-.141-.211-.141-.352a.435.435,0,0,1,.141-.493c.141-.141.352-.07.563-.07.141.141.352.211.422.422a1.2,1.2,0,0,1,0,.7,1.212,1.212,0,0,1-.845.7c-1.126.141-13.656.141-13.656.141-1.478.141-3.168-.282-4.435.493a2.168,2.168,0,0,0-.985,1.478,8,8,0,0,0-1.056,1.126l-.07-.07c.07-.352.211-.634.282-.985A4.071,4.071,0,0,0,53,26.976a7.235,7.235,0,0,1,1.83-2.323c.352-.493.915-.352,1.478-.352a3.4,3.4,0,0,0,1.9.282l.07-.07a3.729,3.729,0,0,0-.7-.422c-.563-.282-1.056.07-1.619.07l-.07-.07a7.851,7.851,0,0,1,1.689-.915,6.361,6.361,0,0,1,1.478-.563c.211,0,.422-.211.563-.07l.7-.211a.246.246,0,0,0,.141.07,7.075,7.075,0,0,1,2.112,0l.07.07.634.141c.282,0,.352.352.634.352.141-.211-.141-.282-.211-.422a1.407,1.407,0,0,1,.915.141l-.141.141c-.07.141.07.282.141.352.07,0,.141-.07.211-.07.211-.141,0-.282.07-.352a15.555,15.555,0,0,1,2.956.845c.282.07.493.282.774.282a3.063,3.063,0,0,0-1.056-.563c-.211-.141-.563-.141-.774-.352a.259.259,0,0,1,.211-.07,2.222,2.222,0,0,0,1.2-.774c0-.07.211-.07.141-.141-.141-.141-.352.07-.493,0-.563.141-.845.774-1.408.915-.7-.141-1.408-.352-2.112-.493a5.612,5.612,0,0,1-1.056-.211l-.774-.07H61.093l-.07-.07c.493-.141.915-.422,1.408-.563l3.66-1.689c.352-.352.7-.7,1.056-1.126a.366.366,0,0,0-.141-.282c-.07-.07-.211,0-.282.07-.141.141,0,.282,0,.422a2.428,2.428,0,0,1-.634.563c-.07,0-3.8,1.689-3.8,1.689a16.474,16.474,0,0,1-1.689.634l-.774.141a.848.848,0,0,1-.352.352,2.237,2.237,0,0,1-.634.211,14.4,14.4,0,0,0-5.068,2.816,1.326,1.326,0,0,0,.141-.563,1.046,1.046,0,0,0-.141-.634c0-.07-.141-.282-.07-.352l-.211.141a2.26,2.26,0,0,0-.141,1.2c.07.282.282.563.07.774a12.357,12.357,0,0,0-1.478,2.675c-.141,0-.282-.211-.352-.352a4.266,4.266,0,0,0,.985-2.041c.07-.07,0-.282.141-.352,0-.211.141-.422,0-.634.07-.282-.422-.563-.07-.774l-.282.141c-.563.774.282,1.971-.352,2.675v.07c-.211.282-.282.493-.563.634-.352-.141-.422-.493-.634-.774a1.347,1.347,0,0,1-.141-1.267,2.007,2.007,0,0,0-.141-1.126v-.282a1.672,1.672,0,0,0-.211,1.619c.141.282.141.563.352.774a7.694,7.694,0,0,0,.563,1.056c.07.141-.07.141-.141.211-.141-.07-.141-.352-.282-.422a9.087,9.087,0,0,0-1.76-2.534c0-.141-.141-.211-.07-.352a.983.983,0,0,0,.211-1.056c0-.07-.141-.141-.07-.211l-.211-.141c0,.493-.282.915-.141,1.408h0A23.2,23.2,0,0,0,44.2,22.048l-.141.352a6.742,6.742,0,0,1,1.478.774c.493.211.915.493,1.408.7a9.409,9.409,0,0,1,3.942,4.646c0,.141.141.352.07.493A7.485,7.485,0,0,0,49.9,27.961a2.048,2.048,0,0,0-1.056-1.549,1.581,1.581,0,0,0-.985-.422h-5c-4.083-.07-7.814.141-11.826.07-.563-.07-1.267-.282-1.408-.845a.763.763,0,0,1,0-.774.715.715,0,0,1,.7-.352c.211,0,.352.211.493.422a1.051,1.051,0,0,1-.211.493.151.151,0,0,0,.141.141c.211-.07.282-.282.352-.422,0-.07.07-.211-.07-.282a.859.859,0,0,0-.634-.563,1.081,1.081,0,0,0-.915.352c-.352.282-.282.774-.211,1.2a1.767,1.767,0,0,0,1.478,1.126l13.375.07a26.4,26.4,0,0,1,4.083.141,1.55,1.55,0,0,1,1.126,1.056h-.07a5.746,5.746,0,0,0-3.942-.774,5.526,5.526,0,0,0-1.549.352.851.851,0,0,1-.7-.211,2.4,2.4,0,0,0-1.971-.282v.07c.7-.07,1.056.493,1.689.563.141,0,.282-.141.352,0-.634.282-1.267.634-1.9.845-.211-.07-.282-.211-.493-.352-.282-.282-.774-.141-1.126-.211-.141,0-.211-.07-.352,0a1.9,1.9,0,0,0,.563.493c.352.141.774,0,1.056.211-.07.07-.211.141-.282.211-.634.282-1.2.845-1.9.774a2.565,2.565,0,0,1-2.041-.634,1.276,1.276,0,0,0-1.408-.774c-.07,0-.07,0-.07.07.282.211.563.563.845.774.211.211.563,0,.774.282a2.182,2.182,0,0,0,.915.422c.211.07.493.141.7.211l-.07.07a13,13,0,0,1-4.083.422c-.422,0-.845-.141-1.2-.141a1.539,1.539,0,0,0,.352.211c-.141.07-.211.07-.352.141s-.352.07-.493.141a1.326,1.326,0,0,0-.563.141,2.2,2.2,0,0,1-.774.634c0,.07,0,.141.07.141.282-.141.563,0,.845-.141.422-.07.7-.563,1.056-.774a1.9,1.9,0,0,1,1.408-.141c.282.07,0,.211.07.352.141.07.211.211.352.141l.07-.07a.32.32,0,0,0,0-.352c.211-.141.422,0,.634-.07.493,0,1.056-.141,1.549-.141.07,0,.211-.07.282,0-.07.141-.211.141-.141.282,0,.141.141.211.282.211.141-.07.282-.141.211-.352,0-.07-.141-.141-.211-.141.282-.141.634-.211.915-.352a4.85,4.85,0,0,0,.563-.211c.211,0,.352-.211.493-.141a1.739,1.739,0,0,1-.282.634,3.5,3.5,0,0,0,0,2.393h.07a3.126,3.126,0,0,1,.141-2.253c.211-1.2,1.408-1.549,2.253-1.971l.07.07a4.482,4.482,0,0,0-.493,1.9c0,.141-.07.282,0,.352a2.192,2.192,0,0,0,.493-.634c.07-.634-.282-1.408.352-1.83a9.759,9.759,0,0,1,3.52-1.056c.07.07.141,0,.141.07-.282.282-.7.563-.774.985a3.109,3.109,0,0,0-.211,2.393c.141.422-.282.634-.422.985a2.343,2.343,0,0,1-.211.422h.282a2.318,2.318,0,0,0,.493-.915.3.3,0,0,0,.282.282c.07-.141-.07-.282-.07-.422.211-.141.352.141.493.211a3.713,3.713,0,0,0,.845.211l.07-.07a1.53,1.53,0,0,0-1.408-.563,3.031,3.031,0,0,1-.282-1.549,3.968,3.968,0,0,1,.282-.845c.07-.211.282-.352.352-.493a2.637,2.637,0,0,1,.845-.493h.07v.07c-.352.282-.422.7-.634,1.056a1.231,1.231,0,0,0-.141,1.2c.07.211.07.493.211.563a2,2,0,0,0,.282-.845c-.07-.493-.282-.915-.07-1.337a1.178,1.178,0,0,1,.774-.634,4.6,4.6,0,0,1,2.112.634,1.035,1.035,0,0,1,.422.352,1.1,1.1,0,0,1-.493.915,1.178,1.178,0,0,1-1.267,0,.925.925,0,0,1-.211-.845.65.65,0,0,1,.634-.211c.141.07.282.211.422.141a.259.259,0,0,0,.07-.211c-.141-.07-.211-.282-.422-.352a.977.977,0,0,0-.774.141.9.9,0,0,0-.282.985,1.234,1.234,0,0,0,.845.915,1.708,1.708,0,0,0,1.689-.563,2.108,2.108,0,0,0,.282-.563,4.028,4.028,0,0,1,1.408,1.83,2.36,2.36,0,0,1,0,.7l.493.07c-.07-.141,0-.211.07-.352a4.418,4.418,0,0,1,1.408-2.253c.211-.141.211.211.211.282a1.97,1.97,0,0,0,1.2,1.056,1.614,1.614,0,0,0,1.478-.493c.211-.352.422-.845.07-1.2a1.008,1.008,0,0,0-.774-.352c-.352,0-.563.282-.774.493,0,.141,0,.211.07.282a.259.259,0,0,0,.211-.07c0-.211.211-.282.352-.422a.432.432,0,0,1,.422.07.8.8,0,0,1,.211.563.713.713,0,0,1-.422.634,1.305,1.305,0,0,1-1.337-.141,2.853,2.853,0,0,1-.352-.634c0-.211-.141-.422,0-.634a5.109,5.109,0,0,1,1.971-.7,1.707,1.707,0,0,1,.7.422c.634.634-.141,1.549.282,2.323.141,0,.141-.282.211-.422.211-.493-.07-1.056-.211-1.549a5.251,5.251,0,0,0-.493-.845h.141a4.083,4.083,0,0,1,.845.7A3.492,3.492,0,0,1,58,30.566a1.429,1.429,0,0,1-.915.774,1.866,1.866,0,0,0-.352.422.794.794,0,0,0,.563-.07c.282-.07.422-.422.563-.563v.07c0,.141-.07.352.07.422.07-.211.07-.493.141-.7a1.251,1.251,0,0,1,.282.7,1.12,1.12,0,0,0,.634.634.31.31,0,0,0-.07-.352c-.07-.352-.352-.493-.493-.774-.493-.634-.282-1.689-.634-2.464a2.732,2.732,0,0,0-.774-1.056l.07-.07a7.041,7.041,0,0,1,1.83.352c.774.352,1.83.282,2.182,1.267a3.725,3.725,0,0,0,.774,1.478h.07a.6.6,0,0,0,0-.493c-.07-.7-.7-.845-.985-1.478l.07-.07a4.07,4.07,0,0,1,.985.352,2.964,2.964,0,0,1,2.041,2.534,5.4,5.4,0,0,1-.493,2.393c-.07.141-.211.211-.141.352A1.473,1.473,0,0,0,63.7,33.8a3.848,3.848,0,0,0,.422-2.816c0-.211-.211-.352-.141-.493.07.07.141.07.211.141.07-.07.211-.07.282-.141,0-.07.07-.211,0-.282-.07-.141-.282-.141-.422-.07a.534.534,0,0,0-.141.282,2.528,2.528,0,0,0-.493-.7v-.07c.634.211,1.2.493,1.83.7a1.017,1.017,0,0,0,.493.141,14.814,14.814,0,0,0,1.689.422c.422-.07.774.141,1.2.07h0c-.141-.211-.493,0-.634-.141a9.864,9.864,0,0,1-2.745-.7c0-.07.07,0,.141,0a.387.387,0,0,0,.211-.352.538.538,0,0,0-.352-.141c-.07.07-.211.141-.211.211,0,.141.141.211.211.282h-.141c-.422-.211-.845-.352-1.267-.563-.141,0-.282-.141-.422-.211-.282-.141-.634-.282-.915-.422a19.286,19.286,0,0,0-2.816-1.056,2.176,2.176,0,0,0-.563-.141c-.352-.07-.7-.211-1.056-.282a4.862,4.862,0,0,0-3.731.352c-.141-.07-.282.211-.352.07.282-.774,1.126-.985,1.9-1.056,5.491-.07,10.7-.07,16.12-.211a1.635,1.635,0,0,0,1.549-.774,2.959,2.959,0,0,0,.141-1.689ZM51.8,29.3a1.017,1.017,0,0,0-.141.493h-.07c.07-.211-.141-.352-.141-.563-.141-.141-.141-.352-.211-.563-.141-.211.141-.352.211-.493.211.07.282.282.422.422.07.282-.141.493-.07.7Z" transform="translate(-29.218 -5.436)"/>
          <path id="Path_118" data-name="Path 118" class="cls-6" d="M81.649,32.585c0,.07.07.07.07.141a2.709,2.709,0,0,1-1.83.563c-.07,0-.141.07-.211.07s-.07-.07,0-.07a2.013,2.013,0,0,1,1.971-.7Z" transform="translate(-44.143 -9.637)"/>
          <path id="Path_119" data-name="Path 119" class="cls-6" d="M79.084,32.929c.07.211-.07.282-.211.352-.141,0-.211-.141-.282-.211-.07-.141.07-.141.07-.211.141-.141.422-.141.422.07Z" transform="translate(-43.831 -9.7)"/>
          <path id="Path_120" data-name="Path 120" class="cls-6" d="M41.963,32.941a.282.282,0,0,1-.352.352c-.07,0-.141-.141-.211-.211,0-.141.07-.211.211-.282a.388.388,0,0,1,.352.141Z" transform="translate(-32.825 -9.711)"/>
          <path id="Path_121" data-name="Path 121" class="cls-6" d="M38.006,33.885v.07a1.068,1.068,0,0,1-.915-.211,2.237,2.237,0,0,0-.7-.7c0-.07-.07-.07,0-.141.634.07,1.056.563,1.619.985Z" transform="translate(-31.331 -9.741)"/>
          <path id="Path_122" data-name="Path 122" class="cls-6" d="M84.808,32.987c-.352.493-.563,1.056-1.126,1.267-.07,0-.211.141-.282.07a2.775,2.775,0,0,1,1.2-1.337c.141,0,.211-.07.211,0Z" transform="translate(-45.26 -9.757)"/>
          <path id="Path_123" data-name="Path 123" class="cls-6" d="M43.114,33.141c0,.141-.07.211-.211.282-.141,0-.141-.07-.211-.141-.07-.141.07-.211.141-.282a.534.534,0,0,1,.282.141Z" transform="translate(-33.202 -9.77)"/>
          <path id="Path_124" data-name="Path 124" class="cls-6" d="M87.418,33.27c-.141.211-.07.422-.211.634-.282.352-.493.7-.915.774-.07-.141.07-.282.141-.422.211-.422.493-.915.915-1.056l.07.07Z" transform="translate(-46.111 -9.83)"/>
          <path id="Path_125" data-name="Path 125" class="cls-6" d="M32.393,33.466a.214.214,0,0,1,0,.282.527.527,0,0,1-.352.07c-.141-.07-.141-.211-.141-.352.141-.07.422-.141.493,0Z" transform="translate(-30.012 -9.884)"/>
          <path id="Path_126" data-name="Path 126" class="cls-6" d="M31.322,33.641c0,.07.07.141.07.211-.07.07-.141.141-.211.141-.141,0-.282-.07-.282-.211s0-.211.141-.282a.534.534,0,0,1,.282.141Z" transform="translate(-29.716 -9.919)"/>
          <path id="Path_127" data-name="Path 127" class="cls-6" d="M33.563,33.851c0,.141.07.282-.141.352s-.282-.07-.422-.141a.366.366,0,0,1,.141-.282c.211-.07.282-.07.422.07Z" transform="translate(-30.338 -9.988)"/>
          <path id="Path_128" data-name="Path 128" class="cls-6" d="M36.8,34.041a.423.423,0,0,1-.07.282.214.214,0,0,1-.282,0c0-.07-.211-.141-.07-.282.07-.07.141-.141.211-.141,0,.07.141.07.211.141Z" transform="translate(-31.324 -10.037)"/>
          <path id="Path_129" data-name="Path 129" class="cls-6" d="M89.581,34.211c-.07.07-.07.211-.211.211s-.282,0-.282-.141c-.07-.211,0-.282.141-.282s.352,0,.352.211Z" transform="translate(-46.936 -10.067)"/>
          <path id="Path_130" data-name="Path 130" class="cls-6" d="M85.963,34.282a.26.26,0,0,1-.141.211.342.342,0,0,1-.422-.211c0-.141.141-.211.211-.282.211,0,.282.141.352.282Z" transform="translate(-45.852 -10.067)"/>
          <path id="Path_131" data-name="Path 131" class="cls-6" d="M88.367,34.241c0,.07-.07.211-.141.211a.31.31,0,0,1-.352-.07c-.141-.141,0-.211.07-.282.141,0,.422,0,.422.141Z" transform="translate(-46.567 -10.096)"/>
          <path id="Path_132" data-name="Path 132" class="cls-6" d="M31.922,34.541c0,.141,0,.282-.141.352-.141,0-.282-.07-.282-.211s0-.282.141-.282a.534.534,0,0,1,.282.141Z" transform="translate(-29.894 -10.185)"/>
          <path id="Path_133" data-name="Path 133" class="cls-6" d="M84.959,34.822c.07.141-.07.282-.211.352-.141,0-.211,0-.282-.07s-.141-.211,0-.282a.256.256,0,0,1,.493,0Z" transform="translate(-45.552 -10.255)"/>
          <path id="Path_134" data-name="Path 134" class="cls-6" d="M42.393,35.033c.07.141-.141.211-.141.282-.07,0-.141.07-.211,0a.366.366,0,0,1-.141-.282c.07-.07.07-.141.211-.141.141-.07.211.07.282.141Z" transform="translate(-32.973 -10.325)"/>
          <path id="Path_135" data-name="Path 135" class="cls-6" d="M89.193,35.129c0,.07-.07.141-.07.211a.423.423,0,0,1-.282.07.281.281,0,0,1-.141-.282c.07-.07.07-.141.211-.141.141-.07.282,0,.282.141Z" transform="translate(-46.829 -10.351)"/>
          <path id="Path_136" data-name="Path 136" class="cls-6" d="M87.7,35.241c.07.141-.07.282-.211.282-.07,0-.141,0-.141.07a8.939,8.939,0,0,1,.845.7v.141a1.858,1.858,0,0,1-1.337-.493c-.07-.07-.282-.07-.352-.141.211-.211.493-.141.774-.141.211-.211-.211-.352,0-.493.07,0,.141-.07.282-.07.07,0,.07.07.141.141Z" transform="translate(-46.178 -10.392)"/>
          <path id="Path_137" data-name="Path 137" class="cls-6" d="M79.985,35.217c0,.07-.07.141-.07.211a.423.423,0,0,1-.282.07c-.07-.07-.211-.211-.141-.352.141-.211.493-.141.493.07Z" transform="translate(-44.097 -10.368)"/>
          <path id="Path_138" data-name="Path 138" class="cls-6" d="M36.293,35.91c-.07.141-.07.211-.211.211a.366.366,0,0,1-.282-.141c0-.07.07-.141.07-.211a.245.245,0,0,1,.422.141Z" transform="translate(-31.167 -10.569)"/>
          <path id="Path_139" data-name="Path 139" class="cls-6" d="M37.5,35.7c0,.211-.211.282-.282.493a1.38,1.38,0,0,1-1.126.915c-.07-.141.211-.282.211-.422a2.386,2.386,0,0,1,1.056-.985Z" transform="translate(-31.251 -10.57)"/>
          <path id="Path_140" data-name="Path 140" class="cls-6" d="M79.559,35.916a.6.6,0,0,1-.211.352c-.141.07-.211-.07-.282-.141-.141-.141-.07-.211,0-.352.141-.141.352,0,.493.141Z" transform="translate(-43.953 -10.575)"/>
          <path id="Path_141" data-name="Path 141" class="cls-6" d="M80.734,36.011a.3.3,0,0,1-.282.282c0-.07-.07,0-.141,0-.07-.07-.211-.141-.211-.282.07-.07.07-.211.211-.211.141.07.352.07.422.211Z" transform="translate(-44.283 -10.599)"/>
          <path id="Path_142" data-name="Path 142" class="cls-6" d="M40.893,36.033c0,.141-.07.211-.211.282a.223.223,0,0,1-.141-.422c.211-.07.282.07.352.141Z" transform="translate(-32.529 -10.621)"/>
          <path id="Path_143" data-name="Path 143" class="cls-6" d="M42.263,36.111c-.07.141-.141.211-.282.211a.534.534,0,0,1-.282-.141c0-.141.07-.211.211-.282a.387.387,0,0,1,.352.211Z" transform="translate(-32.914 -10.629)"/>
          <path id="Path_144" data-name="Path 144" class="cls-6" d="M84.7,37.1c.07.07.211.141.141.211-.211.07-.422-.141-.634-.211a2.756,2.756,0,0,1-.7-1.126c.141-.141.282,0,.352.07A3.117,3.117,0,0,1,84.7,37.1Z" transform="translate(-45.29 -10.633)"/>
          <path id="Path_145" data-name="Path 145" class="cls-6" d="M85.685,36.111c.07.07,0,.211,0,.282a.245.245,0,0,1-.352.07c-.07-.07-.211-.211-.141-.352s.141-.141.282-.211l.211.211Z" transform="translate(-45.785 -10.629)"/>
          <path id="Path_146" data-name="Path 146" class="cls-6" d="M44.114,36.658c0,.141.07.282-.07.352-.141,0-.282,0-.352-.141s.07-.211.141-.282c.141-.07.141,0,.282.07Z" transform="translate(-33.498 -10.824)"/>
          <path id="Path_147" data-name="Path 147" class="cls-6" d="M80.574,37.747a1.682,1.682,0,0,1,.352.985c-.07.07.07.211,0,.282h-.07a2.794,2.794,0,0,1-.985-1.689c-.07,0-.07-.07-.07-.141.141-.141.211.141.352.141l.422.422Z" transform="translate(-44.194 -10.997)"/>
          <path id="Path_148" data-name="Path 148" class="cls-6" d="M45.971,37.235h0A1.847,1.847,0,0,1,44,37.516c0-.07,0-.141.07-.141a2.487,2.487,0,0,1,1.2-.282l.7.141Z" transform="translate(-33.595 -10.979)"/>
          <path id="Path_149" data-name="Path 149" class="cls-6" d="M41.56,37.37c-.493.282-.915.845-1.478.985-.141.07-.211.211-.282.141a2,2,0,0,1,1.76-1.2v.07Z" transform="translate(-32.351 -11.044)"/>
          <path id="Path_150" data-name="Path 150" class="cls-6" d="M79.563,38.241c.07.141,0,.282-.141.282a.214.214,0,0,1-.282,0A.281.281,0,0,1,79,38.241c.07-.07.141-.141.211-.141.141.07.282.07.352.141Z" transform="translate(-43.957 -11.28)"/>
          <path id="Path_151" data-name="Path 151" class="cls-6" d="M77.33,38.375c-.07.211-.352.282-.493.352a2.812,2.812,0,0,1-1.337-.141c0-.141.141-.07.211-.141a3.126,3.126,0,0,1,1.408-.07c.07,0,.211-.07.211,0Z" transform="translate(-42.921 -11.344)"/>
          <path id="Path_152" data-name="Path 152" class="cls-6" d="M42.084,38.882c-.07.07-.07.211-.141.211-.07.07-.211,0-.282-.07,0-.07-.141-.141-.07-.282,0-.07.141-.141.211-.141.211.07.282.141.282.282Z" transform="translate(-32.876 -11.429)"/>
          <path id="Path_153" data-name="Path 153" class="cls-6" d="M43.263,39.1c-.07.07-.07.211-.211.282-.141,0-.211,0-.282-.07a.423.423,0,0,1-.07-.282c0-.07.141-.07.211-.141.141-.07.282.07.352.211Z" transform="translate(-33.21 -11.509)"/>
          <path id="Path_154" data-name="Path 154" class="cls-6" d="M79.184,39.31c0,.141-.07.211-.07.282-.07.07-.211.141-.282.07-.07,0-.141-.141-.141-.211-.07-.141.07-.211.07-.282.07-.141.352-.07.422.141Z" transform="translate(-43.86 -11.575)"/>
          <path id="Path_155" data-name="Path 155" class="cls-6" d="M80.011,39.262c0,.07.07.141,0,.211s-.141.282-.282.211a.151.151,0,0,1-.141-.141c-.07-.141,0-.352.141-.352.141-.07.282.07.282.07Z" transform="translate(-44.123 -11.598)"/>
          <path id="Path_156" data-name="Path 156" class="cls-6" d="M42.563,39.811c0,.141,0,.282-.141.352-.141,0-.352,0-.422-.141,0-.141,0-.352.141-.422.211,0,.352,0,.422.211Z" transform="translate(-33.003 -11.725)"/>
          <path id="Path_157" data-name="Path 157" class="cls-6" d="M43.426,39.8a1.184,1.184,0,0,1-.493,1.056c-.211.07-.422.282-.634.141v-.07c.282-.422.774-.7,1.126-1.126Z" transform="translate(-33.092 -11.784)"/>
          <path id="Path_158" data-name="Path 158" class="cls-6" d="M76.08,40.211c.07.07-.07.141-.07.211a.314.314,0,0,1-.352,0c-.07-.07-.141-.211-.07-.282,0-.07.141-.141.211-.141.141,0,.211.07.282.211Z" transform="translate(-42.939 -11.843)"/>
          <path id="Path_159" data-name="Path 159" class="cls-6" d="M45.6,40.882c.211.352.07.774.211,1.126-.211,0-.352-.211-.493-.352a5.12,5.12,0,0,1-.422-1.478c0-.07.07-.07.07,0a3.526,3.526,0,0,1,.493.563.138.138,0,0,1,.141.141Z" transform="translate(-33.861 -11.88)"/>
          <path id="Path_160" data-name="Path 160" class="cls-6" d="M77.085,40.311c0,.141-.141.141-.211.211a.534.534,0,0,1-.282-.141c-.07-.141.07-.211.141-.282a.387.387,0,0,1,.352.211Z" transform="translate(-43.239 -11.873)"/>
          <path id="Path_161" data-name="Path 161" class="cls-6" d="M79.215,41.667c0,.07,0,.141-.07.07h-.07A1.777,1.777,0,0,1,78.3,40.4h.07c.422.352.845.7.845,1.267Z" transform="translate(-43.75 -11.961)"/>
          <path id="Path_162" data-name="Path 162" class="cls-6" d="M77.963,41.411a.366.366,0,0,1-.141.282.314.314,0,0,1-.422-.211c0-.141.141-.211.211-.282a.6.6,0,0,1,.352.211Z" transform="translate(-43.484 -12.198)"/>
          <path id="Path_163" data-name="Path 163" class="cls-6" d="M76.434,41.882c-.211.493-.7.774-1.056,1.2a.132.132,0,0,1,0-.211A2.1,2.1,0,0,1,76.434,41.6c.141,0-.07.141,0,.282Z" transform="translate(-42.869 -12.317)"/>
          <path id="Path_164" data-name="Path 164" class="cls-6" d="M78.093,42.441c0,.141-.141.211-.211.282a.366.366,0,0,1-.282-.141c0-.141.07-.211.211-.282.141,0,.282.07.282.141Z" transform="translate(-43.543 -12.524)"/>
          <path id="Path_165" data-name="Path 165" class="cls-6" d="M61.935,6.8a.352.352,0,1,1,0,.7H57.852a.352.352,0,0,1,0-.7Zm-2.886.563c.422,0,0-.493-.211-.493h-.422c-.422,0,0,.493.211.493Zm1.689,0c.422,0,0-.493-.211-.493H60.1c-.422,0,0,.493.211.493Zm1.2-.493h-.141c-.422,0-.07.493.141.493.282,0,.282-.493,0-.493Z" transform="translate(-37.592 -2.013)"/>
          <path id="Path_166" data-name="Path 166" class="cls-6" d="M63.182,13.4l.774.282.774-.282-.352,1.2.634-.141-.211.7.211.634-.563-.141.211,1.267-.7-.282-.774.282.352-1.267-.634.141.141-.7-.141-.634.563.07L63.182,13.4Zm1.126,2.112c.141,0,.211-.211.211-.422,0-.493-.352,0-.563-.422-.141.352-.493,0-.493.422,0,.282,0,.493.282.493h.563Zm-.774-.422c0,.211.211.07.422.07s.422.141.422-.07c0-.282-.211-.141-.422-.141-.141-.07-.422-.141-.422.141Z" transform="translate(-39.191 -3.967)"/>
          <path id="Path_167" data-name="Path 167" class="cls-6" d="M60.641,15.593v-.141H60.5l.07-.141-.07-.07h.141l.141-.141.07.141h.141l-.07.07.07.141h-.141v.141l-.07-.07Z" transform="translate(-38.48 -4.471)"/>
          <path id="Path_168" data-name="Path 168" class="cls-6" d="M59.741,16.693v-.141H59.6l.141-.07-.07-.141h.141l.07-.141.07.141h.141l-.07.141.141.07h-.141v.141l-.141-.07Z" transform="translate(-38.214 -4.796)"/>
          <path id="Path_169" data-name="Path 169" class="cls-6" d="M61.241,16.593v-.141H61.1l.07-.141-.07-.141.141.07.141-.141.07.141.141-.07-.07.141.07.141h-.141v.141l-.07-.07Z" transform="translate(-38.658 -4.767)"/>
          <path id="Path_170" data-name="Path 170" class="cls-6" d="M61.37,17.482v-.07H61.3l.07-.07v-.07h.07V17.2l.07.07h.07v.07l.07.07h-.141v.07H61.37Z" transform="translate(-38.717 -5.092)"/>
          <path id="Path_171" data-name="Path 171" class="cls-6" d="M60.011,18.215v-.282H59.8l.141-.211-.07-.211.211.07.141-.282.141.211h.211l-.07.211.141.211h-.211v.282l-.211-.141Z" transform="translate(-38.273 -5.122)"/>
          <path id="Path_172" data-name="Path 172" class="cls-6" d="M59.912,0,60.4,1.2,61.6.845l-.634,1.126,1.056.7-1.267.211.07,1.337-.915-.915-.985.915L59,2.886l-1.2-.211.985-.7L58.222.845l1.2.352Z" transform="translate(-37.681)"/>
          <path id="Path_173" data-name="Path 173" class="cls-6" d="M53.7,38c-.141.07-.211.07-.141.211l.141.7c0,.141.07.352-.07.493a.894.894,0,0,1-.493.282,1.5,1.5,0,0,1-.563,0,.5.5,0,0,1-.282-.352l-.211-.774c-.07-.211-.141-.211-.282-.141v-.07l.915-.211v.07c-.211.07-.282.07-.211.282l.211.774c0,.141.07.422.493.352.493-.141.422-.493.352-.634l-.141-.7c0-.141-.07-.211-.352-.141v-.07L53.7,38Z" transform="translate(-35.904 -11.251)"/>
          <path id="Path_174" data-name="Path 174" class="cls-6" d="M55.956,38.022a.565.565,0,0,0-.634-.282c-.141,0-.282.141-.211.282,0,.141.07.141.352.211l.422.07a.483.483,0,0,1,.422.352c.07.211-.07.493-.563.634a1.047,1.047,0,0,1-.493,0,.069.069,0,0,0-.07.07h-.07l-.141-.493h.07a.659.659,0,0,0,.7.352c.352-.07.282-.282.282-.352,0-.141-.141-.211-.352-.211h-.211c-.493-.07-.563-.282-.563-.422a.5.5,0,0,1,.493-.563.807.807,0,0,1,.422,0,.069.069,0,0,0,.07-.07h.07l.141.493-.141-.07Z" transform="translate(-36.822 -11.132)"/>
          <path id="Path_175" data-name="Path 175" class="cls-6" d="M58.378,38.789l-.985.07v-.07c.211,0,.282-.07.282-.211l-.141-1.267c-.211,0-.493.07-.493.422h-.07l-.07-.493,1.689-.141.07.493h-.07c-.07-.352-.352-.352-.563-.352l.141,1.267c-.07.211,0,.211.211.282Z" transform="translate(-37.414 -10.984)"/>
          <path id="Path_176" data-name="Path 176" class="cls-6" d="M61.5,38.819h-.563l-.563-.774H60.3v.493c0,.211.07.211.211.211v.07H59.6v-.07c.211,0,.282,0,.282-.211V37.482c0-.211-.07-.211-.211-.211V37.2h.915c.211,0,.774,0,.774.422,0,.282-.282.352-.422.422l.563.7c-.07,0,0,0,0,.07Zm-1.2-.845c.352,0,.493-.07.493-.352a.333.333,0,0,0-.352-.352c-.141,0-.141,0-.211.07l.07.634Z" transform="translate(-38.214 -11.014)"/>
          <path id="Path_177" data-name="Path 177" class="cls-6" d="M64.13,39.089l-.915-.141v-.07c.141,0,.211,0,.211-.07s-.07-.282-.07-.352h-.563l-.141.282c0,.07.141.141.211.141v.07l-.563-.07v-.07c.141,0,.211-.07.282-.211l.774-1.2h.07l.493,1.337a.753.753,0,0,0,.211.352Zm-.774-.634-.211-.634-.352.563.563.07Z" transform="translate(-39.013 -11.073)"/>
          <path id="Path_178" data-name="Path 178" class="cls-6" d="M66.619,39.5,65,39.219v-.07c.141,0,.211,0,.282-.141l.211-1.126a.187.187,0,0,0-.211-.211V37.6l.985.211v.07c-.211,0-.282-.07-.352.141L65.7,39.149c0,.141.07.141.211.141a.63.63,0,0,0,.774-.352h.07l-.141.563Z" transform="translate(-39.812 -11.132)"/>
          <path id="Path_179" data-name="Path 179" class="cls-6" d="M68.385,39.83l-.985-.211v-.07c.141,0,.282,0,.282-.141l.211-1.126a.187.187,0,0,0-.211-.211V38l.985.211v.07c-.141,0-.282-.07-.282.141l-.211,1.126c-.07.211.07.211.211.282Z" transform="translate(-40.523 -11.251)"/>
          <path id="Path_180" data-name="Path 180" class="cls-6" d="M70.7,40.289l-.915-.07v-.07c.141,0,.211,0,.211-.07s-.07-.282-.07-.352l-.634-.07-.141.282c0,.07.141.141.211.141v.07l-.563-.07v-.07c.141,0,.211-.07.282-.211l.774-1.2h.07l.493,1.267c.141.282.141.352.282.422Zm-.774-.634-.211-.634-.352.563.563.07Z" transform="translate(-40.938 -11.429)"/>
          <path id="Path_181" data-name="Path 181" class="cls-6" d="M60.885,13.793c0-.563-.352-.07-.493-.493-.141.422-.493.07-.493.493a.538.538,0,0,0,.141.352v.141c0,.07,0,.07.07.07h.634a.069.069,0,0,0,.07-.07v-.211c.07-.07.07-.141.07-.282Zm-.493.07c-.141,0-.422.141-.422-.07,0-.282.211-.211.352-.211s.422-.07.422.211c.07.211-.141.07-.352.07Z" transform="translate(-38.302 -3.938)"/>
          <path id="Path_182" data-name="Path 182" class="cls-6" d="M68.182,23.722c.141,0,.282-.07.282-.211s-.141-.211-.282-.211-.282.07-.282.211c.07.07.141.211.282.211Z" transform="translate(-40.671 -6.899)"/>
          <path id="Path_183" data-name="Path 183" class="cls-6" d="M66.541,11.9l-.141.211a.141.141,0,1,0,.282,0c0,.07-.141-.211-.141-.211Z" transform="translate(-40.227 -3.523)"/>
          <path id="Path_184" data-name="Path 184" class="cls-6" d="M54.741,11.9l-.141.211a.141.141,0,1,0,.282,0c0,.07-.141-.211-.141-.211Z" transform="translate(-36.733 -3.523)"/>
          <path id="Path_185" data-name="Path 185" class="cls-6" d="M57.641,11.9l-.141.211a.141.141,0,0,0,.282,0c0,.07-.141-.211-.141-.211Z" transform="translate(-37.592 -3.523)"/>
          <path id="Path_186" data-name="Path 186" class="cls-6" d="M60.641,11.9l-.141.211a.141.141,0,0,0,.282,0c0,.07-.141-.211-.141-.211Z" transform="translate(-38.48 -3.523)"/>
          <path id="Path_187" data-name="Path 187" class="cls-6" d="M63.541,11.9l-.141.211a.141.141,0,1,0,.282,0c0,.07-.141-.211-.141-.211Z" transform="translate(-39.339 -3.523)"/>
          <path id="Path_188" data-name="Path 188" class="cls-6" d="M54.741,16l.141.211a.141.141,0,1,1-.282,0L54.741,16Z" transform="translate(-36.733 -4.737)"/>
          <path id="Path_189" data-name="Path 189" class="cls-6" d="M54.741,19.9l.141.211a.141.141,0,1,1-.282,0c0,.07.141-.211.141-.211Z" transform="translate(-36.733 -5.892)"/>
          <path id="Path_190" data-name="Path 190" class="cls-6" d="M55.241,23.1l.141.211a.141.141,0,0,1-.282,0l.141-.211Z" transform="translate(-36.881 -6.839)"/>
          <path id="Path_191" data-name="Path 191" class="cls-6" d="M57.641,24.7l.141.211a.141.141,0,0,1-.282,0c.07,0,.141-.211.141-.211Z" transform="translate(-37.592 -7.313)"/>
          <path id="Path_192" data-name="Path 192" class="cls-6" d="M66.641,16l-.141.211a.141.141,0,1,0,.282,0L66.641,16Z" transform="translate(-40.257 -4.737)"/>
          <path id="Path_193" data-name="Path 193" class="cls-6" d="M66.641,19.9l-.141.211a.141.141,0,1,0,.282,0c0,.07-.141-.211-.141-.211Z" transform="translate(-40.257 -5.892)"/>
          <path id="Path_194" data-name="Path 194" class="cls-6" d="M66.241,23.1l-.141.211a.141.141,0,1,0,.282,0l-.141-.211Z" transform="translate(-40.138 -6.839)"/>
          <path id="Path_195" data-name="Path 195" class="cls-6" d="M63.741,24.7l-.141.211a.141.141,0,1,0,.282,0l-.141-.211Z" transform="translate(-39.398 -7.313)"/>
          <path id="Path_196" data-name="Path 196" class="cls-6" d="M60.741,26.5l-.141.211a.141.141,0,1,0,.282,0l-.141-.211Z" transform="translate(-38.51 -7.846)"/>
          <path id="Path_197" data-name="Path 197" class="cls-6" d="M64.741,20.4c0,.07.07.07.141,0l.07-.211a.246.246,0,0,0-.141-.07c-.211.07-.493.07-.563.282a.387.387,0,0,0,.211.352c.07,0,.07.07.141.07,0,.07,0,.141-.07.141-.141-.141-.422.07-.563-.141a.673.673,0,0,0,0-.634c0-.07.07-.07.07-.141-.07-.211-.282-.07-.352-.07a.639.639,0,0,0-.493.211c0,.07.07.141.07.211.07,0,.07,0,.07.07l-.141.07c.07.07.07.07.07.141-.07.07-.211-.07-.211-.141,0-.141,0-.282-.141-.352l-.141.07c0,.07-.07.141-.07.211a.709.709,0,0,0,.07.211s.422.282.493.493c-.141.211-.141.563-.422.7a.259.259,0,0,0-.07.211l.07.07c.141-.07.493-.141.493-.422a.7.7,0,0,1,.282-.352c.141,0,.282.07.282.141-.07.211-.141.352-.352.422v.141a.423.423,0,0,0,.282.07c.211-.141.282-.422.493-.493,0,.141-.282.141-.07.282.141,0,.282,0,.352-.141-.07-.211.282-.352.07-.493,0-.211.211-.282.211-.493-.07-.211-.352-.211-.422-.422a.214.214,0,0,1,.282,0Z" transform="translate(-39.131 -5.902)"/>
          <path id="Path_198" data-name="Path 198" class="cls-6" d="M51.882,23.822c.141,0,.282-.07.282-.211s-.141-.211-.282-.211-.282.07-.282.211.141.211.282.211Z" transform="translate(-35.845 -6.928)"/>
          <path id="Path_199" data-name="Path 199" class="cls-6" d="M32.782,35.022a.314.314,0,0,0,.282-.211c0-.141-.141-.211-.282-.211a.22.22,0,1,0,0,.422Z" transform="translate(-30.19 -10.244)"/>
          <path id="Path_200" data-name="Path 200" class="cls-6" d="M45.07,37.878Zm-.07,0Z" transform="translate(-33.891 -11.199)"/>
          <path id="Path_201" data-name="Path 201" class="cls-6" d="M45.1,37.878Z" transform="translate(-33.921 -11.199)"/>
          <path id="Path_202" data-name="Path 202" class="cls-6" d="M45.17,37.8Z" transform="translate(-33.921 -11.192)"/>
          <path id="Path_203" data-name="Path 203" class="cls-6" d="M45.2,37.878Zm.07,0Z" transform="translate(-33.95 -11.199)"/>
          <path id="Path_204" data-name="Path 204" class="cls-6" d="M45.3,37.9Z" transform="translate(-33.98 -11.221)"/>
          <path id="Path_205" data-name="Path 205" class="cls-6" d="M63.573,11.5H54v7.321a1.81,1.81,0,0,0,.774,1.619l3.66,2.323a.538.538,0,0,0,.352.141.366.366,0,0,0,.282-.141L62.8,20.369a1.81,1.81,0,0,0,.774-1.619V11.5Zm-.282,7.391a1.6,1.6,0,0,1-.634,1.267l-3.59,2.323h0c-.07.07-.141.07-.282.07s-.211-.07-.282-.07l-3.59-2.323a1.834,1.834,0,0,1-.634-1.267v-7.18h9.081v7.18Z" transform="translate(-36.556 -3.405)"/>
          <path id="Path_206" data-name="Path 206" class="cls-6" d="M62.6,26.57l.141-.07a.218.218,0,0,1-.141.07Z" transform="translate(-39.102 -7.846)"/>
          <path id="Path_207" data-name="Path 207" class="cls-6" d="M51.5,40.249l-.915.07v-.07c.141,0,.211-.07.211-.141s-.141-.211-.141-.282l-.634.07a1.11,1.11,0,0,0-.07.282c0,.07.141.07.211.07v.07l-.563.07v-.07c.141-.07.211-.141.211-.282L50.3,38.7h.07l.774,1.126c.141.282.211.352.352.422Zm-.915-.493-.352-.563-.211.634.563-.07Z" transform="translate(-35.253 -11.458)"/>
          <path id="Path_208" data-name="Path 208" class="cls-6" d="M65.988,35.634a1.374,1.374,0,0,0-.915-.845,1.413,1.413,0,0,0-1.2.282c-.493.422-.141,1.056-.141,1.619,0,.141,0,.211-.07.282-1.971-.211-3.872-.7-5.843-.915-.422-.07-.915-.07-1.337-.141l-.563-.07a24.307,24.307,0,0,0-5.068.563c-.352.141-.7.141-1.056.282-.282-.07-.422.141-.7.07l-.422.07h-.141c-.211-.563.422-.915.211-1.478a.965.965,0,0,0-.915-.563,1.143,1.143,0,0,0-1.126.563,3.651,3.651,0,0,0,.211,2.112c0,.211.211.493,0,.634a1.98,1.98,0,0,0-1.549-.352c-.141.07-.493,0-.563.141a3.912,3.912,0,0,0,2.041.282c.07,0,.141-.07.211,0,.07.352-.07.845.141,1.2a1.208,1.208,0,0,0,1.056.422,18.335,18.335,0,0,0,3.52-.7c.211,0,.352-.141.493-.141a8.874,8.874,0,0,1,1.971-.282,3.478,3.478,0,0,0-.563,1.267c-.141.352.282.422.422.634-.422.141-.7.422-1.126.563a13.851,13.851,0,0,0-2.464.422c0,.211.282.141.352.282-.07.141-.141.141-.282.211,0,.07,0,.07.07.141.07-.07.282,0,.352-.141.282,0,.493-.07.774-.07a2.942,2.942,0,0,0,.7-.282c.282-.07.493-.282.774-.352.422,0,.774-.141,1.2-.141v.07c-.352.493-.634,1.056-.985,1.549a.135.135,0,0,0,.07.211.794.794,0,0,0,.563-.07,14.894,14.894,0,0,0,.774-1.478c.07-.493.422-.7.774-1.056.07,0,.141-.141.211,0a7.733,7.733,0,0,0-.634.985,1.06,1.06,0,0,0,.211,1.2c.141.141.422.07.634.141.563-.282,1.2.141,1.619-.352.282-.07.282.282.422.422.211.07.493.282.7.141,0-.141-.211-.282-.282-.422-.141-.282-.352-.493-.493-.774-.07-.211-.211-.352-.211-.493.282.07.493.282.774.282a4.328,4.328,0,0,1,.774.211,2.528,2.528,0,0,0,.7.493c.352.141.7.211,1.056.352.141,0,.352.141.422,0-.07-.07-.141-.141-.211-.141-.07-.211.282-.07.352-.211,0-.07-.07-.07-.141-.07-.211-.07-.7-.141-.845-.211a1.3,1.3,0,0,1-.493-.141c-.845,0-1.267-.774-1.971-1.056a3.252,3.252,0,0,0,.493-.493.833.833,0,0,0,.07-.7c-.141-.422-.7-.352-.985-.634l.07-.07a5,5,0,0,1,1.478.211,24.306,24.306,0,0,0,3.942.7c.774,0,1.689.07,2.112-.7l.211-1.267c-.07-.774.422-1.408.352-2.182ZM51.135,41.969l-.211-.211c.07-.141.282-.07.422-.141a1.734,1.734,0,0,1,1.2-.141,3.374,3.374,0,0,1-1.408.493Zm8.588-.211a7.606,7.606,0,0,0,1.478.352c-.07.211-.352,0-.352.282a4.105,4.105,0,0,1-1.267-.563c.07-.07.07-.07.141-.07ZM46.771,35.845c.07-.282.07-.493.352-.7a.955.955,0,0,1,1.056.07.972.972,0,0,1,.211.282.71.71,0,0,1-.211.634h-.141a1.949,1.949,0,0,1,.07-.634c0-.141-.141-.211-.282-.282-.211-.07-.422.07-.634.141a.65.65,0,0,0-.211.634c.07.141,0,.352.07.493l-.07.07c0-.211-.211-.352-.211-.7Zm.634.422c.211.141.493.07.774.141a.434.434,0,0,1-.07.493c-.211-.07-.563,0-.634-.282a3.049,3.049,0,0,0-.07-.352Zm0-.493c.07-.141,0-.282.141-.282.07,0,.282,0,.282.07a1.2,1.2,0,0,1-.07.493c-.211,0-.282-.141-.352-.282Zm6.476,4.435a1.642,1.642,0,0,1,.422-1.267.771.771,0,0,1,.563,0c-.352.07-.845.211-.915.634,0,.211-.07.282.07.422.141.282.493.141.7.352a.151.151,0,0,1-.141.141,1.008,1.008,0,0,1-.7-.282Zm-.493.985c.352-.141.7-.422,1.056-.282a2.61,2.61,0,0,1-1.056.282Zm1.267.141c-.211.422-.422.845-.7,1.337,0,.07-.141.07-.211.07,0-.211.211-.352.282-.493.282-.352.352-.774.7-1.126.141,0-.07.07-.07.211Zm.352-.845Zm-.141-.352A2.055,2.055,0,0,1,54.233,40c-.141-.141,0-.282,0-.422.211-.282.774-.422.985-.211a1.13,1.13,0,0,1-.352.774Zm.352,0a4.85,4.85,0,0,1,.211-.563,1.84,1.84,0,0,1-.211.563Zm.141-1.126c-.211-.07-.282-.282-.493-.282a.6.6,0,0,1,.493,0c.07.141,0,.211,0,.282Zm.141.422h0v-.141h0v.141Zm0,.634a.259.259,0,0,1,.07-.211c.07-.07.141.07.141.07,0,.141-.141.141-.211.141Zm.211-.845c.07-.211.07-.352.211-.493a.527.527,0,0,1,.352.07c0,.282.352.634,0,.915-.141.07-.282.211-.422.07a.585.585,0,0,1-.141-.563ZM56.7,38.8c0-.141.141,0,.211-.07h.422c-.211,0-.493.493-.634.07Zm.7.211c-.141.07-.282.282-.422.282a.579.579,0,0,1,.422-.282Zm-.563.845Zm0,.845v.07l-.282-.211a.366.366,0,0,1,.282.141Zm-.352-.422h0Zm-.211-.211c.07-.07.141-.211.211-.211v.07c0,.07-.07.141-.211.141Zm-.282,0h0V40c.07,0,0,0,0,.07Zm.07.493c.211-.211.352.141.422.282.211.282.774.563.563.985-.282.211-.7,0-.985.211-.141,0-.422,0-.493-.141a3.45,3.45,0,0,1,.493-1.337Zm-.422.282.07-.141c-.141.352-.282.7-.422.985-.141-.282.211-.563.352-.845Zm.634,1.619c-.282,0-.634.141-.915-.07,0-.141-.141-.141-.07-.282.211-.07.422.211.634,0a4.6,4.6,0,0,1,.985,0c.141.07.352-.282.422.07-.211.493-.774.141-1.056.282Zm.774-1.971Zm.07.845c0,.141.141.211.07.352a3.05,3.05,0,0,1-.07-.352Zm.422.845h0c-.141,0-.141-.211-.07-.282,0,.07.07.211.07.282Zm.634.352c0,.07-.07.07-.141,0a4.769,4.769,0,0,1-.845-1.689h.07c.352.563.634,1.126.915,1.689Zm.563-1.267h0a1.226,1.226,0,0,1-.985-.352v-.07a2,2,0,0,1,.985.422Zm-.352-1.83a.387.387,0,0,1,.211.352.848.848,0,0,1-.493.7.748.748,0,0,1-.563.07.854.854,0,0,0,.845-.493v-.634Zm-.352-.07c.07.211.211.352.141.634-.141.282-.422.282-.634.352a.635.635,0,0,1-.352-.07c0-.07,0-.07-.07-.141.07-.211-.352-.352-.07-.493.211-.352.774-.774.985-.282Zm7.039-1.056c-.141.141,0,.352-.141.493,0,.282-.211.352-.352.493-1.619.352-3.238-.211-4.857-.493a16.931,16.931,0,0,0-7.039-.141c-1.056.211-2.112.422-3.1.7a4.326,4.326,0,0,1-1.9,0c-.493-.211-.282-.845-.422-1.337a4.753,4.753,0,0,0-.141-.985.765.765,0,0,1-.07-.352c.211,0,.422.211.634.211a8.352,8.352,0,0,0,3.238-.352,24.65,24.65,0,0,1,3.168-.493,20.691,20.691,0,0,1,3.66.141c.352,0,.7.141,1.056.141.774.07,1.478.282,2.253.352a.893.893,0,0,0,.422.07c1.267.211,2.6.563,3.8,0a4.838,4.838,0,0,1-.211,1.549Zm-.422-1.689c0,.211-.211.141-.282.282h-.352a.893.893,0,0,1-.07-.422c.282.07.493.07.7.141Zm-.141-.282c.141-.141-.07-1.056.352-.422a.528.528,0,0,1-.07.352c-.07,0-.141.141-.282.07Zm1.126-.141a.788.788,0,0,1-.563.493c0-.352.282-.563.211-.915a.808.808,0,0,0-.845-.282c-.141.07-.07.211-.141.352l-.07.493c-.282,0-.282-.282-.352-.422a.774.774,0,0,1,.422-.7.986.986,0,0,1,.774,0,.646.646,0,0,1,.422.282c.211.07.141.422.141.7Z" transform="translate(-33.832 -10.293)"/>
        </g>
        <g id="Group_5" data-name="Group 5" transform="translate(0 38.153)">
          <path id="Path_209" data-name="Path 209" class="cls-6" d="M3.731,58.735H1.619l-.282.563a1.791,1.791,0,0,0-.141.493.387.387,0,0,0,.211.352c.07.07.282.07.563.141v.141H0v-.141A.869.869,0,0,0,.563,60a3.244,3.244,0,0,0,.493-.915L3.238,54.3h.07l2.182,4.927a3.244,3.244,0,0,0,.493.915.6.6,0,0,0,.422.141v.141H3.52v-.141H3.66c.211,0,.422,0,.493-.07,0-.07.07-.141.07-.211v-.141a2.96,2.96,0,0,1-.141-.352Zm-.141-.352-.915-2.112L1.76,58.383Z" transform="translate(0 -54.23)"/>
          <path id="Path_210" data-name="Path 210" class="cls-6" d="M13.242,57.1v3.238c0,.352,0,.493.07.563a.538.538,0,0,0,.352.141v.211H11.975V60.69a3.077,3.077,0,0,1-.563.493,1.046,1.046,0,0,1-.634.141,1.135,1.135,0,0,1-.634-.211.815.815,0,0,1-.352-.493,3.74,3.74,0,0,1-.07-.985V58.015c0-.282,0-.493-.07-.563a.538.538,0,0,0-.352-.141V57.17h1.689v2.816c0,.282,0,.493.07.563,0,.07.07.141.141.211a.259.259,0,0,0,.211.07c.141,0,.211,0,.282-.07a1.014,1.014,0,0,0,.422-.493V58.015c0-.282,0-.493-.07-.563a.538.538,0,0,0-.352-.141V57.17h1.549Z" transform="translate(-2.754 -55.059)"/>
          <path id="Path_211" data-name="Path 211" class="cls-6" d="M18.5,57l.07,1.408h-.141a2.165,2.165,0,0,0-.563-.845,1.123,1.123,0,0,0-.563-.211.5.5,0,0,0-.422.422.259.259,0,0,0,.07.211,2.738,2.738,0,0,0,.774.634,3.1,3.1,0,0,1,.845.774,1.189,1.189,0,0,1,.211.7,2.5,2.5,0,0,1-.141.7,1.109,1.109,0,0,1-.493.493,1.189,1.189,0,0,1-.7.211,1.835,1.835,0,0,1-.774-.211c-.07,0-.141-.07-.211-.07a.225.225,0,0,0-.211.211h-.141l-.141-1.549h.141a2.266,2.266,0,0,0,.563.915.86.86,0,0,0,.634.282.5.5,0,0,0,.352-.845,5.286,5.286,0,0,0-.563-.493,7.109,7.109,0,0,1-.915-.7,1.059,1.059,0,0,1-.282-.774,1.166,1.166,0,0,1,.352-.845A1.181,1.181,0,0,1,17.237,57a2.055,2.055,0,0,1,.634.141.259.259,0,0,0,.211.07h.141A.871.871,0,0,0,18.364,57Z" transform="translate(-4.708 -55.029)"/>
          <path id="Path_212" data-name="Path 212" class="cls-6" d="M21.9,55v1.549h.985v.422H21.9v3.1a.151.151,0,0,0,.141.141.218.218,0,0,0,.141.07c.211,0,.352-.141.563-.422l.141.07a1.2,1.2,0,0,1-1.2.845,1.189,1.189,0,0,1-.7-.211.815.815,0,0,1-.352-.493,5.89,5.89,0,0,1-.07-.845V56.971H20V56.83a12.256,12.256,0,0,0,.985-.845,5,5,0,0,0,.7-.985Z" transform="translate(-5.922 -54.437)"/>
          <path id="Path_213" data-name="Path 213" class="cls-6" d="M25.86,57.041v.915a3.118,3.118,0,0,1,.7-.845A1.135,1.135,0,0,1,27.2,56.9a1,1,0,0,1,.422.141.755.755,0,0,1,.141.422,1.017,1.017,0,0,1-.141.493c-.07.141-.211.141-.352.141a1,1,0,0,1-.422-.141.871.871,0,0,1-.211-.141h-.07a.259.259,0,0,0-.211.07.646.646,0,0,0-.282.422,4.154,4.154,0,0,0-.141.985v1.619c.07.07.07.141.141.141a.528.528,0,0,0,.352.07v.07H24.17v-.141a.414.414,0,0,0,.352-.141c.07-.07.07-.282.07-.7V57.885c0-.211,0-.422-.07-.422,0-.07-.07-.141-.141-.211s-.141-.07-.282-.07v-.141h1.76Z" transform="translate(-7.135 -54.999)"/>
          <path id="Path_214" data-name="Path 214" class="cls-6" d="M31.782,60.72a2.469,2.469,0,0,1-1.337.7.727.727,0,0,1-.774-.774,1,1,0,0,1,.422-.845,6.914,6.914,0,0,1,1.76-.985V58.4c0-.282,0-.493-.07-.563q0-.106-.211-.211a.527.527,0,0,0-.352-.07,1.017,1.017,0,0,0-.493.141c-.07.07-.141.141-.141.211s.07.141.141.211a.455.455,0,0,1,.141.352.538.538,0,0,1-.141.352,1,1,0,0,1-.422.141,1.017,1.017,0,0,1-.493-.141A.5.5,0,0,1,29.6,58.4a.86.86,0,0,1,.282-.634,1.2,1.2,0,0,1,.7-.422A4.12,4.12,0,0,1,31.5,57.2a1.194,1.194,0,0,1,.915.282,1.1,1.1,0,0,1,.422.563,2.429,2.429,0,0,1,.07.845V60.86c0,.07.07.07.07.141l.07.07c.07,0,.141-.07.211-.141l.141.141a1.645,1.645,0,0,1-.493.493,1.2,1.2,0,0,1-1.126,0A3.183,3.183,0,0,0,31.782,60.72Zm0-.352V58.96a1.906,1.906,0,0,0-.774.7.67.67,0,0,0-.141.493.488.488,0,0,0,.422.493C31.43,60.649,31.571,60.508,31.782,60.368Z" transform="translate(-8.764 -55.088)"/>
          <path id="Path_215" data-name="Path 215" class="cls-6" d="M36.96,54.5v5.139c0,.282,0,.493.07.563a.6.6,0,0,0,.422.141v.141H35.2v-.141a.6.6,0,0,0,.422-.141c.07-.07.07-.282.07-.563V55.345c0-.282,0-.493-.07-.563a.6.6,0,0,0-.422-.141V54.5Z" transform="translate(-10.422 -54.289)"/>
          <path id="Path_216" data-name="Path 216" class="cls-6" d="M40.06,56.271v3.308c0,.282,0,.493.07.563a.6.6,0,0,0,.422.141v.141H38.3v-.141a.6.6,0,0,0,.422-.141c.07-.07.07-.282.07-.563V57.116c0-.282,0-.493-.07-.563a.6.6,0,0,0-.422-.141v-.141ZM39.426,54.3a.722.722,0,1,1-.493.211C39.074,54.3,39.215,54.3,39.426,54.3Z" transform="translate(-11.34 -54.23)"/>
          <path id="Path_217" data-name="Path 217" class="cls-6" d="M44.182,60.72a2.469,2.469,0,0,1-1.337.7.727.727,0,0,1-.774-.774,1,1,0,0,1,.422-.845,6.914,6.914,0,0,1,1.76-.985V58.4c0-.282,0-.493-.07-.563q0-.106-.211-.211a.527.527,0,0,0-.352-.07,1.017,1.017,0,0,0-.493.141c-.07.07-.141.141-.141.211s.07.141.141.211a.455.455,0,0,1,.141.352.538.538,0,0,1-.141.352,1,1,0,0,1-.422.141,1.017,1.017,0,0,1-.493-.141A.5.5,0,0,1,42,58.4a.86.86,0,0,1,.282-.634,1.2,1.2,0,0,1,.7-.422A4.12,4.12,0,0,1,43.9,57.2a1.194,1.194,0,0,1,.915.282,1.1,1.1,0,0,1,.422.563,2.429,2.429,0,0,1,.07.845V60.86c0,.07.07.07.07.141l.07.07c.07,0,.141-.07.211-.141l.141.141a1.645,1.645,0,0,1-.493.493,1.2,1.2,0,0,1-1.126,0A3.182,3.182,0,0,0,44.182,60.72Zm0-.352V58.96a1.906,1.906,0,0,0-.774.7.67.67,0,0,0-.141.493.488.488,0,0,0,.422.493A1.929,1.929,0,0,0,44.182,60.368Z" transform="translate(-12.435 -55.088)"/>
          <path id="Path_218" data-name="Path 218" class="cls-6" d="M49.689,57.07v.563a1.941,1.941,0,0,1,.634-.493A2.055,2.055,0,0,1,50.956,57a1.189,1.189,0,0,1,.7.211.967.967,0,0,1,.352.563,3.2,3.2,0,0,1,.07.985v1.619a1.389,1.389,0,0,0,.07.634.538.538,0,0,0,.352.141v.07H50.393v-.141a.387.387,0,0,0,.352-.211c.07-.07.07-.282.07-.563v-1.83c0-.352,0-.563-.07-.634,0-.07-.07-.141-.141-.211a.259.259,0,0,0-.211-.07c-.282,0-.493.211-.7.563v2.253c0,.282,0,.493.07.563a.414.414,0,0,0,.352.141v.141H48v-.141a.538.538,0,0,0,.352-.141c.07-.07.07-.282.07-.563V58.056c0-.282,0-.493-.07-.563A.538.538,0,0,0,48,57.352v-.141h1.689Z" transform="translate(-14.212 -55.029)"/>
          <path id="Path_219" data-name="Path 219" class="cls-6" d="M63.883,54.27v2.112h-.141a2.682,2.682,0,0,0-.915-1.337,2.318,2.318,0,0,0-1.337-.422,1.948,1.948,0,0,0-1.126.352,2.651,2.651,0,0,0-.634,1.056,4.539,4.539,0,0,0-.211,1.408,5.49,5.49,0,0,0,.211,1.549,2,2,0,0,0,.634.985,1.7,1.7,0,0,0,1.056.282.893.893,0,0,0,.422-.07,1.791,1.791,0,0,0,.493-.141V58.776c0-.211,0-.422-.07-.493q0-.106-.211-.211A.528.528,0,0,0,61.7,58H61.56V57.86h2.956V58c-.211,0-.352.07-.493.07l-.211.211a2.489,2.489,0,0,0-.07.422v1.267c-.352.141-.774.282-1.2.422a7.757,7.757,0,0,1-1.267.141,3.955,3.955,0,0,1-1.408-.211,2.953,2.953,0,0,1-.985-.634,7.455,7.455,0,0,1-.7-.845,2.965,2.965,0,0,1-.282-1.408A3.248,3.248,0,0,1,61.279,54.2a3.427,3.427,0,0,1,.845.07,1.621,1.621,0,0,1,.634.211,1.216,1.216,0,0,0,.493.141.259.259,0,0,0,.211-.07.753.753,0,0,0,.211-.352h.211Z" transform="translate(-17.143 -54.2)"/>
          <path id="Path_220" data-name="Path 220" class="cls-6" d="M69.471,56.9a1.616,1.616,0,0,1,.985.282,1.873,1.873,0,0,1,.7.774,2.918,2.918,0,0,1,.211,1.126,2.6,2.6,0,0,1-.422,1.478,1.684,1.684,0,0,1-1.478.7,1.818,1.818,0,0,1-1.478-.634,2.275,2.275,0,0,1-.493-1.549,2.4,2.4,0,0,1,.493-1.549A2.195,2.195,0,0,1,69.471,56.9Zm0,.352a1,1,0,0,0-.422.141.934.934,0,0,0-.211.7c0,.352-.07.774-.07,1.408a3.719,3.719,0,0,0,.07.915.639.639,0,0,0,.211.493.388.388,0,0,0,.352.141c.141,0,.211-.07.352-.141a.426.426,0,0,0,.211-.422,9.556,9.556,0,0,0,.07-1.689,4.053,4.053,0,0,0-.07-1.056.646.646,0,0,0-.282-.422C69.682,57.252,69.612,57.252,69.471,57.252Z" transform="translate(-19.985 -54.999)"/>
          <path id="Path_221" data-name="Path 221" class="cls-6" d="M75.212,61.424,73.8,58.185c-.141-.422-.282-.634-.422-.7a.366.366,0,0,0-.282-.141V57.2h2.182v.141c-.141,0-.211,0-.282.07s-.141.141-.141.211a2.072,2.072,0,0,0,.211.634l.7,1.549.563-1.337a2.434,2.434,0,0,0,.211-.845.259.259,0,0,0-.07-.211.528.528,0,0,0-.352-.07V57.2h1.337v.141c-.141,0-.211.07-.352.141a1.97,1.97,0,0,0-.352.7l-1.408,3.238Z" transform="translate(-21.643 -55.088)"/>
          <path id="Path_222" data-name="Path 222" class="cls-6" d="M82.979,59.012H80.726a2.03,2.03,0,0,0,.422,1.337.991.991,0,0,0,1.267.211A2.094,2.094,0,0,0,82.908,60l.141.07a2.3,2.3,0,0,1-.774.985,1.415,1.415,0,0,1-.915.282,1.563,1.563,0,0,1-1.408-.7,2.215,2.215,0,0,1-.352-1.408,2.569,2.569,0,0,1,.563-1.689A1.734,1.734,0,0,1,81.5,56.9a1.5,1.5,0,0,1,1.126.493A3.451,3.451,0,0,1,82.979,59.012Zm-1.056-.352a3.465,3.465,0,0,0-.07-.985,2.342,2.342,0,0,0-.211-.422c-.07-.07-.141-.07-.282-.07a.387.387,0,0,0-.352.211,2.332,2.332,0,0,0-.282,1.056v.141h1.2Z" transform="translate(-23.568 -54.999)"/>
          <path id="Path_223" data-name="Path 223" class="cls-6" d="M86.36,57.041v.915a3.118,3.118,0,0,1,.7-.845A1.135,1.135,0,0,1,87.7,56.9a1,1,0,0,1,.422.141.755.755,0,0,1,.141.422,1.017,1.017,0,0,1-.141.493c-.07.141-.211.141-.352.141a1,1,0,0,1-.422-.141.871.871,0,0,1-.211-.141h-.07a.259.259,0,0,0-.211.07.646.646,0,0,0-.282.422,4.155,4.155,0,0,0-.141.985v1.619a.151.151,0,0,0,.141.141.528.528,0,0,0,.352.07v.07H84.67v-.141a.414.414,0,0,0,.352-.141c.07-.07.07-.282.07-.7V57.885c0-.211,0-.422-.07-.422,0-.07-.07-.141-.141-.211s-.141-.07-.282-.07v-.141h1.76Z" transform="translate(-25.048 -54.999)"/>
          <path id="Path_224" data-name="Path 224" class="cls-6" d="M91.589,57.07v.563a1.941,1.941,0,0,1,.634-.493A2.055,2.055,0,0,1,92.856,57a1.189,1.189,0,0,1,.7.211.967.967,0,0,1,.352.563,3.2,3.2,0,0,1,.07.985v1.619a1.389,1.389,0,0,0,.07.634.538.538,0,0,0,.352.141v.07H92.293v-.141a.387.387,0,0,0,.352-.211c.07-.07.07-.282.07-.563v-1.83c0-.352,0-.563-.07-.634,0-.07-.07-.141-.141-.211a.259.259,0,0,0-.211-.07c-.282,0-.493.211-.7.563v2.253c0,.282,0,.493.07.563a.414.414,0,0,0,.352.141v.141H89.9v-.141a.538.538,0,0,0,.352-.141c.07-.07.07-.282.07-.563V58.056c0-.282,0-.493-.07-.563a.538.538,0,0,0-.352-.141v-.141h1.689Z" transform="translate(-26.617 -55.029)"/>
          <path id="Path_225" data-name="Path 225" class="cls-6" d="M98.23,57.07v.563a1.3,1.3,0,0,1,.634-.493A2.055,2.055,0,0,1,99.5,57a1.189,1.189,0,0,1,.7.211.874.874,0,0,1,.422.563,1.654,1.654,0,0,1,.7-.563,1.279,1.279,0,0,1,1.408,0,1.263,1.263,0,0,1,.352.493,3.465,3.465,0,0,1,.07.985v1.689c0,.352,0,.493.07.563a.538.538,0,0,0,.352.141v.141H101.4v-.141a.387.387,0,0,0,.352-.211c.07-.07.07-.282.07-.563v-1.76a1.58,1.58,0,0,0-.07-.7c0-.07-.07-.141-.141-.211a.259.259,0,0,0-.211-.07,1,1,0,0,0-.422.141,1.2,1.2,0,0,0-.422.422v2.253c0,.282,0,.493.07.563.07.141.211.141.422.211v.07H98.864v-.141c.141,0,.211,0,.282-.07s.141-.141.141-.211V58.549a1.58,1.58,0,0,0-.07-.7c0-.07-.07-.141-.141-.211a.259.259,0,0,0-.211-.07.635.635,0,0,0-.352.07,1.527,1.527,0,0,0-.422.493v2.253c0,.282,0,.493.07.563a.538.538,0,0,0,.352.141v.141H96.4v-.141a.538.538,0,0,0,.352-.141c.07-.07.07-.282.07-.563V58.056c0-.282,0-.493-.07-.563a.538.538,0,0,0-.352-.141v-.141h1.83Z" transform="translate(-28.542 -55.029)"/>
          <path id="Path_226" data-name="Path 226" class="cls-6" d="M110.379,59.012h-2.253a2.03,2.03,0,0,0,.422,1.337.991.991,0,0,0,1.267.211,2.094,2.094,0,0,0,.493-.563l.141.07a2.3,2.3,0,0,1-.774.985,1.415,1.415,0,0,1-.915.282,1.563,1.563,0,0,1-1.408-.7A2.215,2.215,0,0,1,107,59.223a2.569,2.569,0,0,1,.563-1.689A1.734,1.734,0,0,1,108.9,56.9a1.5,1.5,0,0,1,1.126.493A3.451,3.451,0,0,1,110.379,59.012Zm-1.056-.352a3.465,3.465,0,0,0-.07-.985,2.343,2.343,0,0,0-.211-.422c-.07-.07-.141-.07-.282-.07a.387.387,0,0,0-.352.211,2.332,2.332,0,0,0-.282,1.056v.141h1.2Z" transform="translate(-31.68 -54.999)"/>
          <path id="Path_227" data-name="Path 227" class="cls-6" d="M113.789,57.07v.563a1.941,1.941,0,0,1,.634-.493,2.055,2.055,0,0,1,.634-.141,1.189,1.189,0,0,1,.7.211.967.967,0,0,1,.352.563,3.2,3.2,0,0,1,.07.985v1.619a1.389,1.389,0,0,0,.07.634.538.538,0,0,0,.352.141v.07h-2.112v-.141a.387.387,0,0,0,.352-.211c.07-.07.07-.282.07-.563v-1.83c0-.352,0-.563-.07-.634,0-.07-.07-.141-.141-.211a.259.259,0,0,0-.211-.07c-.282,0-.493.211-.7.563v2.253c0,.282,0,.493.07.563a.414.414,0,0,0,.352.141v.141H112.1v-.141a.538.538,0,0,0,.352-.141c.07-.07.07-.282.07-.563V58.056c0-.282,0-.493-.07-.563a.538.538,0,0,0-.352-.141v-.141h1.689Z" transform="translate(-33.19 -55.029)"/>
          <path id="Path_228" data-name="Path 228" class="cls-6" d="M120.3,55v1.549h.985v.422H120.3v3.1a.151.151,0,0,0,.141.141.218.218,0,0,0,.141.07c.211,0,.352-.141.563-.422l.141.07a1.2,1.2,0,0,1-1.2.845,1.189,1.189,0,0,1-.7-.211.815.815,0,0,1-.352-.493,5.89,5.89,0,0,1-.07-.845V56.971H118.4V56.83a12.256,12.256,0,0,0,.985-.845,5,5,0,0,0,.7-.985Z" transform="translate(-35.055 -54.437)"/>
        </g>
      </g>
    </g>
  </g>
</svg>
