<svg xmlns="http://www.w3.org/2000/svg" viewBox="0 0 34 34">
  <defs>
    <style>
      .cls-1 {
        fill: #ee6378;
      }

      .cls-2 {
        fill: #fff;
      }
    </style>
  </defs>
  <g id="Group_535" data-name="Group 535" transform="translate(-1108 -27)">
    <path id="Path_543" data-name="Path 543" class="cls-1" d="M34,17A17,17,0,1,1,17,0,16.986,16.986,0,0,1,34,17" transform="translate(1108 27)"/>
    <g id="M25Q0x.tif_1_" transform="translate(1114 33)">
      <g id="Group_530" data-name="Group 530" transform="translate(0 0)">
        <path id="Path_549" data-name="Path 549" class="cls-2" d="M0,11.143A11.2,11.2,0,0,1,11.166,0,11.073,11.073,0,0,1,22.3,11.154a11.082,11.082,0,0,1-11.108,11.12A11.219,11.219,0,0,1,0,11.143Zm3.377-.655h0c.494,0,1-.023,1.493.011.379.023.551-.092.574-.494a18.247,18.247,0,0,1,.4-3.056c.069-.287-.046-.414-.322-.482a9.7,9.7,0,0,1-2.079-.793.39.39,0,0,0-.609.172A9.956,9.956,0,0,0,1.4,10.086c-.034.31.057.425.356.414C2.3,10.488,2.837,10.488,3.377,10.488Zm15.554,0H20.54c.276,0,.414-.046.379-.391A9.869,9.869,0,0,0,19.46,5.8c-.138-.23-.276-.253-.505-.138a10.927,10.927,0,0,1-2.137.816c-.264.069-.391.207-.322.494a15.854,15.854,0,0,1,.379,2.952c.023.414.172.62.632.574S18.461,10.488,18.932,10.488Zm.057,1.287c-.494,0-1,.023-1.493-.011-.4-.023-.586.115-.609.528a16.487,16.487,0,0,1-.391,3c-.069.3.092.414.333.482a10.865,10.865,0,0,1,2.125.827c.23.115.368.092.505-.138a9.888,9.888,0,0,0,1.459-4.227c.034-.391-.115-.471-.448-.46C19.977,11.786,19.483,11.775,18.989,11.775ZM1.4,12.165a10.007,10.007,0,0,0,1.447,4.262c.126.2.241.322.494.184a13.187,13.187,0,0,1,2.229-.873c.23-.069.31-.184.264-.414a20.249,20.249,0,0,1-.4-3.113c-.023-.345-.184-.448-.517-.437-1.011.011-2.022.011-3.044,0C1.539,11.763,1.3,11.821,1.4,12.165Zm12.3-1.677c.46,0,.919-.023,1.379,0,.391.023.563-.115.517-.528-.092-.908-.172-1.827-.333-2.723-.046-.276-.2-.356-.437-.3a21.312,21.312,0,0,1-2.562.287c-.345.034-.471.138-.46.482.011.77.023,1.528,0,2.3-.011.391.172.494.517.482C12.786,10.477,13.245,10.488,13.7,10.488Zm-5.089,0h1.493c.287,0,.414-.126.414-.414,0-.8-.011-1.608,0-2.412,0-.276-.092-.4-.391-.437a22.288,22.288,0,0,1-2.619-.3.323.323,0,0,0-.448.3c-.172.942-.253,1.9-.333,2.837-.023.287.092.425.391.414C7.616,10.488,8.122,10.488,8.616,10.488Zm.011,1.287a12.67,12.67,0,0,1-1.321-.011c-.517-.046-.632.184-.563.643.115.816.149,1.631.3,2.435.069.379.138.505.574.425A21.82,21.82,0,0,1,10.063,15c.345-.023.471-.138.471-.471-.011-.758-.011-1.528,0-2.286.011-.345-.126-.482-.471-.471C9.581,11.786,9.11,11.775,8.627,11.775Zm5.123,0H12.257c-.31,0-.46.115-.46.437.011.781.011,1.562,0,2.355,0,.3.092.437.425.448a15.371,15.371,0,0,1,2.608.3c.23.046.368,0,.414-.253.161-.942.264-1.884.345-2.837.023-.31-.08-.46-.414-.448C14.7,11.786,14.233,11.775,13.751,11.775ZM10.523,18.61h0c0-.609-.011-1.218.011-1.838.011-.31-.1-.459-.425-.437a14.72,14.72,0,0,0-1.6.138c-1.08.218-1.183-.138-.678,1.172a8.354,8.354,0,0,0,.712,1.436,4.808,4.808,0,0,0,1.436,1.528c.345.23.563.23.551-.276C10.511,19.747,10.523,19.173,10.523,18.61Zm1.287-.08h0c0,.6.011,1.183-.011,1.781-.011.448.138.563.528.322a1.7,1.7,0,0,0,.241-.149,7.289,7.289,0,0,0,2.206-3.55q.1-.31-.241-.345a21.5,21.5,0,0,0-2.275-.241c-.368-.011-.46.138-.46.471C11.821,17.381,11.809,17.955,11.809,18.529Zm0-14.842c0,.6.011,1.183,0,1.781-.011.345.115.494.46.46l2.217-.241c.264-.034.356-.149.253-.425A10.671,10.671,0,0,0,13.728,3.09a4.434,4.434,0,0,0-1.436-1.447c-.333-.2-.482-.126-.482.287C11.821,2.5,11.809,3.1,11.809,3.687Zm-1.287,0c0-.517.011-1.034,0-1.551,0-.2.1-.471-.1-.586-.23-.138-.437.092-.6.218A7.067,7.067,0,0,0,7.57,5.342c-.08.241.115.31.276.322.735.092,1.47.161,2.217.253.356.046.482-.115.471-.46C10.511,4.871,10.523,4.285,10.523,3.687ZM7.961,20.425c-.471-.747-.793-1.367-1.137-1.976-.276-.482-.126-1.31-.793-1.413a3.335,3.335,0,0,0-1.654.551c-.057.023-.1.046-.161.069-.241.092-.287.23-.092.414A10.011,10.011,0,0,0,7.961,20.425ZM14.394,1.861c.276.482.505.839.712,1.218.207.4.414.816.586,1.241.437,1.08.437,1.091,1.528.666,1.5-.586,1.356-.46.23-1.436A8.577,8.577,0,0,0,14.394,1.861Zm-.023,18.552a9.649,9.649,0,0,0,3.837-2.366c.161-.161.161-.287-.069-.379a14.5,14.5,0,0,0-1.827-.678c-.161-.046-.253-.023-.31.138A13.257,13.257,0,0,1,14.371,20.413ZM7.972,1.849A9.522,9.522,0,0,0,4.136,4.216c-.184.184-.1.287.1.368.551.207,1.1.425,1.654.632.264.1.425.011.517-.264A12.1,12.1,0,0,1,7.972,1.849Z" transform="translate(0 0)"/>
      </g>
    </g>
  </g>
</svg>
