<svg xmlns="http://www.w3.org/2000/svg" width="12.976" height="12.969" viewBox="0 0 12.976 12.969"><defs><style>.a{opacity:0.8;}.b{fill:#fff;}</style></defs><g class="a"><path class="b" d="M12.458,4.127A6.357,6.357,0,0,0,9,.686,6.377,6.377,0,0,0,6.478.168,6.312,6.312,0,0,0,3.959.686,6.377,6.377,0,0,0,.511,4.127a6.482,6.482,0,0,0,0,5.044,6.391,6.391,0,0,0,3.448,3.448,6.312,6.312,0,0,0,2.519.518A6.38,6.38,0,0,0,9,12.619a6.371,6.371,0,0,0,3.455-3.448,6.4,6.4,0,0,0,0-5.044ZM11.423,9.512a5.692,5.692,0,0,1-2.086,2.079,5.588,5.588,0,0,1-2.859.766A5.494,5.494,0,0,1,4.264,11.9,5.8,5.8,0,0,1,2.448,10.69,5.766,5.766,0,0,1,1.235,8.866,5.586,5.586,0,0,1,.788,6.646a5.578,5.578,0,0,1,.759-2.852A5.7,5.7,0,0,1,3.626,1.715,5.545,5.545,0,0,1,6.478.948a5.588,5.588,0,0,1,2.859.766,5.71,5.71,0,0,1,2.086,2.079,5.545,5.545,0,0,1,.766,2.852A5.6,5.6,0,0,1,11.423,9.512Z" transform="translate(0 -0.168)"/><path class="b" d="M287.838,114.706V111.29a.38.38,0,0,0-.383-.369.372.372,0,0,0-.363.369v3.469a.3.3,0,0,1,.013.053.345.345,0,0,0,.1.3l1.972,1.972a.375.375,0,0,0,.508,0,.356.356,0,0,0,0-.514Z" transform="translate(-280.977 -108.281)"/></g></svg>