<svg xmlns="http://www.w3.org/2000/svg" viewBox="0 0 34 34">
  <defs>
    <style>
      .cls-1 {
        fill: #ee6378;
      }

      .cls-2 {
        fill: #fff;
      }
    </style>
  </defs>
  <g id="Group_536" data-name="Group 536" transform="translate(-1064 -27)">
    <g id="Group_534" data-name="Group 534">
      <path id="Path_548" data-name="Path 548" class="cls-1" d="M34,17A17,17,0,1,1,17,0,16.986,16.986,0,0,1,34,17" transform="translate(1064 27)"/>
      <g id="Group_529" data-name="Group 529" transform="translate(1069.075 35.663)">
        <path id="Path_544" data-name="Path 544" class="cls-2" d="M12.209,8.717V1.231c0-.443-.029-.857-.514-1.072-.457-.2-.772.043-1.086.314C9.137,1.745,7.651,3,6.179,4.3a1.786,1.786,0,0,1-1.329.486c-1.286-.029-.572-.014-1.858,0-.757,0-1.043.271-1.057,1.029-.014,1.872-.014,3.758,0,5.629,0,.872.271,1.129,1.172,1.129,1.243.014.472.029,1.715,0a1.718,1.718,0,0,1,1.286.471c1.443,1.286,2.9,2.529,4.358,3.8.371.314.743.643,1.272.414.557-.243.471-.757.471-1.243Z" transform="translate(0 0)"/>
        <path id="Path_545" data-name="Path 545" class="cls-2" d="M128.167,7.209a13.2,13.2,0,0,0-2.529-6.044c-.443-.6-.972-.757-1.386-.4-.514.443-.343.914,0,1.386l.129.171a11.558,11.558,0,0,1,.071,13.6,3.882,3.882,0,0,0-.386.6.769.769,0,0,0,.243,1.014.725.725,0,0,0,1.029-.043,3.38,3.38,0,0,0,.5-.6,13.674,13.674,0,0,0,2.5-8.03A7.819,7.819,0,0,0,128.167,7.209Z" transform="translate(-106.286 -0.42)"/>
        <path id="Path_546" data-name="Path 546" class="cls-2" d="M111,15.523c-.414-.586-.9-.714-1.314-.386a.82.82,0,0,0-.114,1.257,8.6,8.6,0,0,1,.014,10.144.815.815,0,0,0,.071,1.157c.414.4.972.314,1.372-.271a9.641,9.641,0,0,0,1.843-4.986A10.773,10.773,0,0,0,111,15.523Z" transform="translate(-93.777 -12.749)"/>
        <path id="Path_547" data-name="Path 547" class="cls-2" d="M95.581,31.562c-.386-.672-.814-.886-1.3-.643s-.557.743-.2,1.414a5.582,5.582,0,0,1,0,5.515c-.343.643-.257,1.1.229,1.343.629.314.972-.071,1.257-.557a7.587,7.587,0,0,0,.957-3.615A7.38,7.38,0,0,0,95.581,31.562Z" transform="translate(-80.515 -26.345)"/>
      </g>
    </g>
  </g>
</svg>
