<svg id="Group_573" data-name="Group 573" xmlns="http://www.w3.org/2000/svg" viewBox="0 0 29.651 29.651">
  <defs>
    <style>
      .cls-1 {
        fill: #2d64af;
      }

      .cls-2 {
        fill: #fff;
      }
    </style>
  </defs>
  <path id="Path_552" data-name="Path 552" class="cls-1" d="M28.015,0H1.636A1.636,1.636,0,0,0,0,1.636V28.015a1.636,1.636,0,0,0,1.636,1.636h14.2V18.184H11.988V13.7h3.851v-3.3c0-3.831,2.34-5.916,5.756-5.916a31.471,31.471,0,0,1,3.452.177v4H22.69c-1.859,0-2.218.883-2.218,2.18V13.7h4.445l-.579,4.488H20.472V29.651h7.543a1.636,1.636,0,0,0,1.636-1.636V1.636A1.636,1.636,0,0,0,28.015,0Z"/>
  <path id="f_1_" class="cls-2" d="M422.484,179.774V168.308h3.866l.579-4.488h-4.445v-2.858c0-1.3.359-2.18,2.218-2.18h2.357v-4a31.521,31.521,0,0,0-3.452-.177c-3.417,0-5.757,2.085-5.757,5.916v3.3H414v4.488h3.851v11.467Z" transform="translate(-402.012 -150.123)"/>
</svg>
