<svg xmlns="http://www.w3.org/2000/svg" xmlns:xlink="http://www.w3.org/1999/xlink" width="89" height="89" viewBox="0 0 89 89"><defs><style>.a{fill:#719fff;}.b{clip-path:url(#a);}.c{fill:#fff;}.d{fill:#4864c8;}</style><clipPath id="a"><circle class="a" cx="44.5" cy="44.5" r="44.5" transform="translate(1473 564)"/></clipPath></defs><g transform="translate(-1473 -564)"><g class="b"><circle class="a" cx="44.5" cy="44.5" r="44.5" transform="translate(1473 564)"/><g transform="translate(-21900.459 2150.906)"><rect class="c" width="47.53" height="22.043" rx="11.022" transform="translate(23394.604 -1554.869)"/><circle class="d" cx="5.511" cy="5.511" r="5.511" transform="translate(23402.182 -1549.042)"/><circle class="d" cx="5.511" cy="5.511" r="5.511" transform="translate(23423.535 -1549.042)"/><rect class="c" width="2.372" height="20.399" transform="translate(23403.871 -1574.268)"/><rect class="c" width="2.372" height="20.399" transform="translate(23431.07 -1574.268)"/><circle class="c" cx="2.688" cy="2.688" r="2.688" transform="translate(23402.289 -1576.956)"/><circle class="c" cx="2.688" cy="2.688" r="2.688" transform="translate(23429.646 -1576.956)"/></g><path class="c" d="M22.8,21.557a10,10,0,0,1,18.4,0L58.059,61.076A10,10,0,0,1,48.861,75H15.139a10,10,0,0,1-9.2-13.924Z" transform="translate(1486 606)"/></g></g></svg>